<?xml version="1.0" standalone="no"?>
<!DOCTYPE svg PUBLIC "-//W3C//DTD SVG 1.1//EN" "http://www.w3.org/Graphics/SVG/1.1/DTD/svg11.dtd" >
<svg>
<metadata>
Created by FontForge 20120731 at Sun Feb 28 17:02:42 2016
 By ,,,
2002 | Eric Olson | Process Type Foundry | All Rights Reserved
</metadata>
<defs>
<font id="Bryant-Bold" horiz-adv-x="763" >
  <font-face 
    font-family="Bryant"
    font-weight="700"
    font-stretch="normal"
    units-per-em="1000"
    panose-1="0 0 0 0 0 0 0 0 0 0"
    ascent="800"
    descent="-200"
    x-height="433"
    cap-height="675"
    bbox="-60 -226 1121 889"
    underline-thickness="20"
    underline-position="-113"
    unicode-range="U+0020-FB02"
  />
<missing-glyph horiz-adv-x="1000" 
 />
    <glyph glyph-name=".notdef" horiz-adv-x="1000" 
 />
    <glyph glyph-name=".null" horiz-adv-x="0" 
 />
    <glyph glyph-name="nonmarkingreturn" horiz-adv-x="300" 
 />
    <glyph glyph-name="space" unicode=" " horiz-adv-x="300" 
 />
    <glyph glyph-name="hungarumlaut" unicode="&#x2dd;" horiz-adv-x="468" 
d="M385 606q7 17 -0.5 34.5t-25.5 24.5q-17 7 -34 -1t-24 -25l-52 -132q-7 -17 0.5 -34.5t24.5 -24.5q18 -7 35 1t24 25zM219 606q7 17 -0.5 34.5t-25.5 24.5q-17 7 -34.5 -1t-24.5 -25l-51 -132q-7 -17 0.5 -34.5t24.5 -24.5q18 -7 35 0.5t24 24.5z" />
    <glyph glyph-name="ogonek" unicode="&#x2db;" horiz-adv-x="293" 
d="M243 -147q0 10 -7 16.5t-17 6.5q-11 0 -23 -2.5t-24 -2.5q-19 0 -33.5 9t-14.5 30q0 29 18 51t39 39h-50q-13 0 -27.5 -9.5t-26.5 -23t-19.5 -29t-7.5 -28.5q0 -24 10.5 -41t27.5 -28t37.5 -16t41.5 -5q8 0 21 1t25 4.5t21 10t9 17.5z" />
    <glyph glyph-name="caron" unicode="&#x2c7;" horiz-adv-x="343" 
d="M313 589q0 11 -6 22q-11 18 -33 18q-11 0 -20 -6l-82 -52l-83 52q-11 6 -22 6q-20 0 -31 -18q-6 -9 -6 -20q0 -10 4.5 -19t13.5 -14l100 -62q11 -8 24 -8t20 5l103 65q18 11 18 31z" />
    <glyph glyph-name="dotlessi" unicode="&#x131;" horiz-adv-x="283" 
d="M202 52v329q0 25 -18 43t-43 18t-42.5 -18t-17.5 -43v-329q0 -25 17.5 -42.5t42.5 -17.5t43 17.5t18 42.5z" />
    <glyph glyph-name="fraction" unicode="&#x2044;" horiz-adv-x="379" 
d="M429 641q2 18 -14 29q-7 5 -15 5q-18 2 -28 -13l-416 -622q-2 -4 -4 -7.5t-2 -7.5q-2 -19 14 -28q4 -3 14 -5q18 -2 29 14l416 621q4 6 6 14z" />
    <glyph glyph-name="fraction" unicode="&#x2215;" horiz-adv-x="379" 
d="M429 641q2 18 -14 29q-7 5 -15 5q-18 2 -28 -13l-416 -622q-2 -4 -4 -7.5t-2 -7.5q-2 -19 14 -28q4 -3 14 -5q18 -2 29 14l416 621q4 6 6 14z" />
    <glyph glyph-name="fi" unicode="&#xfb01;" horiz-adv-x="675" 
d="M600 612q0 28 -19.5 47.5t-47.5 19.5t-47 -19.5t-19 -47.5t19 -47t47 -19t47.5 19t19.5 47zM594 52v329q0 25 -18 43t-43 18t-42.5 -18t-17.5 -43v-329q0 -25 17.5 -42.5t42.5 -17.5t43 17.5t18 42.5zM383 623q0 21 -14.5 35.5t-35.5 14.5h-40q-44 0 -76.5 -13
t-53.5 -36.5t-31.5 -55.5t-10.5 -70v-65h-56q-21 0 -35.5 -14.5t-14.5 -35.5t14.5 -35.5t35.5 -14.5h56v-281q0 -25 18 -42.5t43 -17.5t42.5 17.5t17.5 42.5v281h81q21 0 35.5 14.5t14.5 35.5t-14.5 35.5t-35.5 14.5h-81v77q0 33 17.5 48t45.5 15h28q21 0 35.5 14.5
t14.5 35.5z" />
    <glyph glyph-name="fl" unicode="&#xfb02;" horiz-adv-x="666" 
d="M591 52v562q0 25 -17.5 43t-42.5 18t-43 -18t-18 -43v-562q0 -25 18 -42.5t43 -17.5t42.5 17.5t17.5 42.5zM383 623q0 21 -14.5 35.5t-35.5 14.5h-40q-44 0 -76.5 -13t-53.5 -36.5t-31.5 -55.5t-10.5 -70v-65h-56q-21 0 -35.5 -14.5t-14.5 -35.5t14.5 -35.5t35.5 -14.5
h56v-281q0 -25 18 -42.5t43 -17.5t42.5 17.5t17.5 42.5v281h81q21 0 35.5 14.5t14.5 35.5t-14.5 35.5t-35.5 14.5h-81v77q0 33 17.5 48t45.5 15h28q21 0 35.5 14.5t14.5 35.5z" />
    <glyph glyph-name="ring" unicode="&#x2da;" horiz-adv-x="267" 
d="M227 571q0 39 -27 66t-66 27q-19 0 -36 -7t-30 -20t-20.5 -30t-7.5 -36q0 -20 7.5 -37t20 -29.5t29.5 -20t37 -7.5q19 0 36 7.5t30 20.5t20 30t7 36zM176 571q0 -18 -11 -30.5t-31 -12.5t-31 12.5t-11 30.5t11.5 30t30.5 12t30.5 -12t11.5 -30z" />
    <glyph glyph-name="exclam" unicode="!" horiz-adv-x="338" 
d="M229 471v144q0 25 -17.5 42.5t-42.5 17.5t-42.5 -17.5t-17.5 -42.5v-144q11 -86 17.5 -135.5t9.5 -74t3.5 -30.5l0.5 -6q2 -12 9.5 -20t19.5 -8t19.5 8t9.5 20l0.5 6t3.5 30.5t9.5 74t17.5 135.5zM238 62q0 29 -20 48.5t-49 19.5t-49 -19.5t-20 -48.5t20 -49t49 -20
t49 20t20 49z" />
    <glyph glyph-name="quotedbl" unicode="&#x22;" horiz-adv-x="459" 
d="M369 451v173q0 21 -15 36t-36 15t-36 -15t-15 -36v-173q0 -21 15 -36t36 -15t36 15t15 36zM192 451v173q0 21 -15 36t-36 15t-36 -15t-15 -36v-173q0 -21 15 -36t36 -15t36 15t15 36z" />
    <glyph glyph-name="numbersign" unicode="#" horiz-adv-x="600" 
d="M570 435q0 16 -11 27.5t-27 11.5h-68l20 154q2 17 -8.5 30.5t-27.5 15.5t-30.5 -8t-15.5 -27l-21 -165h-121l19 154q2 17 -8 30.5t-27 15.5t-30.5 -8.5t-15.5 -27.5l-21 -164h-79q-16 0 -27 -11.5t-11 -27.5t11 -27.5t27 -11.5h69l-12 -100h-77q-16 0 -27 -11.5
t-11 -27.5t11 -27.5t27 -11.5h67l-23 -180q-2 -17 8.5 -30.5t27.5 -15.5t30.5 8.5t15.5 27.5l24 190h121l-23 -180q-2 -17 8.5 -30.5t27.5 -15.5t30.5 8.5t15.5 27.5l24 190h80q16 0 27.5 11.5t11.5 27.5t-11.5 27.5t-27.5 11.5h-70l12 100h78q16 0 27 11.5t11 27.5z
M371 396l-12 -100h-121l12 100h121z" />
    <glyph glyph-name="dollar" unicode="$" horiz-adv-x="612" 
d="M552 187q0 63 -51 112t-144 82q-5 2 -8.5 2.5t-7.5 2.5v175q35 -2 62 -6t52 -11q17 -5 28 -5q17 0 31 8t22 25q5 13 5 23q0 18 -10.5 33.5t-28.5 22.5q-42 16 -80 21t-81 6v46q0 9 -6 15t-15 6t-15 -6t-6 -15v-47q-101 -5 -160 -51t-59 -132q0 -38 12.5 -67.5t35.5 -53
t54 -42t69 -34.5q13 -5 25 -10t23 -10v-170q-47 0 -83.5 9.5t-80.5 32.5q-18 9 -33 9q-28 0 -45 -30q-7 -13 -7 -28q0 -17 9 -31.5t25 -23.5q57 -33 113.5 -43.5t101.5 -10.5v-54q0 -9 6 -15t15 -6t15 6t6 15v56q46 4 85 19t67 40t43.5 59t15.5 76zM299 404q-55 24 -74 45.5
t-19 47.5q0 29 25 45t68 19v-157zM425 179q0 -32 -24.5 -48.5t-59.5 -21.5v150q42 -19 63 -36.5t21 -43.5z" />
    <glyph glyph-name="percent" unicode="%" horiz-adv-x="788" 
d="M748 143q0 32 -12 60.5t-33 49.5t-49.5 33t-60.5 12t-60.5 -12t-49.5 -33t-33 -49.5t-12 -60.5t12 -60.5t33 -49.5t49.5 -33t60.5 -12t60.5 12t49.5 33t33 49.5t12 60.5zM593 638q0 22 -18 33q-7 4 -17 4q-22 0 -32 -18l-337 -612q-4 -8 -4 -18q0 -9 5 -17.5t13 -13.5
q7 -4 17 -4q21 0 32 18l337 612q4 7 4 16zM350 523q0 32 -12 60.5t-33 49.5t-49.5 33t-60.5 12t-60.5 -12t-49.5 -33t-33 -49.5t-12 -60.5t12 -60.5t33 -49.5t49.5 -33t60.5 -12t60.5 12t49.5 33t33 49.5t12 60.5zM663 143q0 -31 -16.5 -54t-53.5 -23t-53.5 23t-16.5 54
t16.5 54t53.5 23t53.5 -23t16.5 -54zM265 523q0 -31 -16.5 -54t-53.5 -23t-53.5 23t-16.5 54t16.5 54t53.5 23t53.5 -23t16.5 -54z" />
    <glyph glyph-name="ampersand" unicode="&#x26;" horiz-adv-x="738" 
d="M718 68q0 17 -12.5 29t-29.5 12q-10 0 -18.5 -4t-18.5 -9.5t-22.5 -9.5t-28.5 -4q-21 0 -37 10.5t-26 28.5q9 10 23.5 30t29 42.5t24.5 44t10 35.5q0 23 -16.5 37.5t-39.5 14.5q-29 0 -43 -27q-13 -24 -26 -46.5t-29 -45.5q-26 34 -50 69t-50 69q26 13 50 31t42.5 40.5
t29.5 49.5t11 59q0 37 -14.5 66t-38.5 48.5t-56 29.5t-67 10q-36 0 -67.5 -10.5t-55 -30.5t-36.5 -49.5t-13 -67.5q0 -40 20 -74.5t41 -66.5q-32 -16 -60 -35.5t-49 -44t-33 -55t-12 -68.5q0 -45 17 -80t46 -59t67 -37t80 -13q53 0 100.5 17.5t89.5 49.5q52 -67 137 -67
q15 0 37.5 5.5t43.5 16t35.5 25.5t14.5 34zM385 518q0 -38 -24 -62.5t-56 -40.5q-17 21 -34 48.5t-17 56.5q0 30 16.5 46t46.5 16q29 0 48.5 -17t19.5 -47zM388 137q-25 -22 -57 -32t-65 -10q-42 0 -68.5 20.5t-26.5 65.5q0 21 8.5 39.5t22 33.5t31.5 26t36 19
q29 -41 59 -81t60 -81z" />
    <glyph glyph-name="quotesingle" unicode="'" horiz-adv-x="282" 
d="M192 451v173q0 21 -15 36t-36 15t-36 -15t-15 -36v-173q0 -21 15 -36t36 -15t36 15t15 36z" />
    <glyph glyph-name="parenleft" unicode="(" horiz-adv-x="316" 
d="M291 692q0 20 -16 34.5t-36 14.5q-14 0 -25 -7t-19 -18q-64 -89 -99.5 -197.5t-35.5 -217.5t36 -218t99 -198q8 -11 19 -18t25 -7q20 0 35.5 15t15.5 35q0 8 -2 14.5t-5 13.5q-44 87 -74 175.5t-30 187.5q0 100 29.5 188t74.5 175q8 14 8 28z" />
    <glyph glyph-name="parenright" unicode=")" horiz-adv-x="316" 
d="M256 301q0 109 -35 217.5t-99 197.5q-8 11 -19 18t-25 7q-20 0 -36.5 -15t-16.5 -35q0 -8 2.5 -14t5.5 -13q45 -87 74.5 -175t29.5 -188q0 -99 -29.5 -187.5t-73.5 -175.5q-3 -7 -5.5 -13t-2.5 -14q0 -20 15.5 -35t35.5 -15q14 0 25.5 7t19.5 18q63 89 98.5 197.5
t35.5 217.5z" />
    <glyph glyph-name="asterisk" unicode="*" horiz-adv-x="379" 
d="M359 548q0 4 -2 12q-4 11 -13 17t-20 6q-5 0 -13 -2l-87 -30v88q0 15 -10 25.5t-25 10.5t-25.5 -10.5t-10.5 -25.5v-88l-85 30q-8 2 -12 2q-11 0 -20.5 -6t-13.5 -17q-2 -3 -2 -7v-7q1 -11 7 -19.5t17 -12.5l86 -30l-58 -81q-4 -5 -5 -11t-1 -12q2 -17 15 -27q9 -6 20 -6
q18 0 29 15l59 82l58 -82q5 -8 13.5 -11.5t16.5 -3.5q11 0 20 6q8 5 11.5 13.5t3.5 16.5q0 9 -7 20l-57 80l87 31q11 4 17.5 13.5t6.5 20.5z" />
    <glyph glyph-name="plus" unicode="+" horiz-adv-x="540" 
d="M495 217q0 20 -14 34t-34 14h-124v124q0 22 -15.5 37.5t-37.5 15.5t-37.5 -15.5t-15.5 -37.5v-124h-124q-20 0 -34 -14t-14 -34t14 -34t34 -14h124v-124q0 -22 15.5 -37.5t37.5 -15.5t37.5 15.5t15.5 37.5v124h124q20 0 34 14t14 34z" />
    <glyph glyph-name="comma" unicode="," horiz-adv-x="321" 
d="M231 38q0 18 -4.5 34.5t-13.5 29t-23 20.5t-34 8q-29 0 -49 -20t-20 -49t18 -46.5t45 -23.5v-5q1 -24 -9 -43.5t-22.5 -35.5t-23 -29t-10.5 -22q0 -11 8 -19t19 -8t21 8q44 36 71 90t27 111z" />
    <glyph glyph-name="hyphen" unicode="-" horiz-adv-x="461" 
d="M381 265q0 23 -16 39t-39 16h-191q-23 0 -39 -16t-16 -39t16 -38.5t39 -15.5h191q23 0 39 15.5t16 38.5z" />
    <glyph glyph-name="hyphen" unicode="&#xad;" horiz-adv-x="461" 
d="M381 265q0 23 -16 39t-39 16h-191q-23 0 -39 -16t-16 -39t16 -38.5t39 -15.5h191q23 0 39 15.5t16 38.5z" />
    <glyph glyph-name="period" unicode="." horiz-adv-x="317" 
d="M227 62q0 29 -20 48.5t-49 19.5t-48.5 -19.5t-19.5 -48.5t19.5 -49t48.5 -20t49 20t20 49z" />
    <glyph glyph-name="slash" unicode="/" horiz-adv-x="407" 
d="M372 680q0 14 -9 26t-23 17q-5 2 -14 2q-14 0 -26 -8.5t-17 -22.5l-245 -741q-1 -4 -2 -7t-1 -7q0 -14 9 -26.5t23 -17.5q5 -2 15 -2q14 1 25.5 9t16.5 22l245 741q3 7 3 15z" />
    <glyph glyph-name="zero" unicode="0" horiz-adv-x="645" 
d="M595 333q0 66 -16.5 128.5t-50 110.5t-85 77t-120.5 29t-120.5 -29t-85.5 -77t-50.5 -110.5t-16.5 -128.5t16.5 -128.5t50.5 -111t85.5 -77.5t120.5 -29t120.5 29t85 77.5t50 111t16.5 128.5zM468 333q0 -116 -37 -173.5t-108 -57.5t-108.5 57.5t-37.5 173.5t37.5 173.5
t108.5 57.5t108 -57.5t37 -173.5z" />
    <glyph glyph-name="one" unicode="1" horiz-adv-x="449" 
d="M334 55v557q0 24 -17.5 43.5t-47.5 19.5q-10 0 -17 -3l-213 -67q-23 -7 -33.5 -27.5t-2.5 -43.5q7 -23 27.5 -33.5t43.5 -3.5l133 42v-484q0 -26 19 -44.5t45 -18.5t44.5 18.5t18.5 44.5z" />
    <glyph glyph-name="two" unicode="2" horiz-adv-x="667" 
d="M597 57q0 23 -16 40t-40 17h-331q0 26 22 49t52 42.5t61.5 34.5t51.5 24q39 19 74 38t62 44t42.5 59t15.5 82t-24.5 84t-62.5 60t-83.5 35.5t-86.5 11.5q-29 0 -60.5 -3.5t-62.5 -11t-60 -20.5t-52 -31q-12 -10 -21.5 -23t-9.5 -30q0 -23 17.5 -39t40.5 -16q14 0 28 8
q24 14 45 24t41.5 16t43 9t51.5 3q18 0 40.5 -3.5t42 -12.5t33 -24.5t13.5 -38.5q0 -40 -30 -66t-75 -48t-97 -45.5t-97 -58t-75 -84.5t-30 -125q0 -23 16 -40.5t40 -17.5h425q23 0 39.5 17t16.5 40z" />
    <glyph glyph-name="three" unicode="3" horiz-adv-x="625" 
d="M570 195q0 63 -29.5 105t-86.5 67q32 25 49 59.5t17 74.5q0 45 -18 78.5t-48 55t-68.5 32.5t-79.5 11q-21 0 -58 -5t-73 -16.5t-62.5 -31t-26.5 -48.5q0 -23 18 -38.5t40 -15.5q11 0 25.5 7.5t32.5 16t41.5 16t52.5 7.5q19 0 37.5 -4.5t32.5 -14.5t22.5 -25t8.5 -37
q0 -40 -16.5 -58t-41.5 -24t-54 -5t-54 -1t-41.5 -12t-16.5 -38q0 -20 14.5 -35t34.5 -15q29 0 67 0.5t72.5 -7t58 -29t23.5 -64.5q0 -29 -13 -48.5t-34 -31.5t-46.5 -17t-49.5 -5q-29 0 -52.5 3.5t-46 11t-44.5 18.5t-46 25q-8 5 -15 7.5t-16 2.5q-23 0 -39 -17t-16 -39
q0 -15 7.5 -27t18.5 -21q52 -42 118 -59t131 -17q48 0 96 12t86.5 37.5t63 64.5t24.5 94z" />
    <glyph glyph-name="four" unicode="4" horiz-adv-x="699" 
d="M669 216q0 23 -17 40t-40 17h-107v339q0 26 -19 44.5t-45 18.5q-16 0 -27.5 -6.5t-21.5 -17.5l-362 -395q-8 -9 -11.5 -20t-3.5 -23q0 -23 17 -38.5t40 -15.5h306v-104q0 -26 18.5 -44.5t44.5 -18.5t45 18.5t19 44.5v104h107q23 0 40 17t17 40zM378 273h-178l178 194
v-194z" />
    <glyph glyph-name="five" unicode="5" horiz-adv-x="632" 
d="M577 216q0 56 -21.5 97t-57.5 67.5t-83 39.5t-98 13q-26 0 -52.5 -4t-51.5 -12l21 134h256q24 0 40 17t16 40t-16 40.5t-40 17.5h-308q-23 0 -38 -15.5t-18 -36.5q-1 -1 -4.5 -21t-8 -49.5t-10 -64t-10 -65t-7.5 -51.5t-3 -24q0 -23 17.5 -41t40.5 -18q8 0 15 2.5t15 5.5
q39 17 71 24.5t75 7.5q25 0 48.5 -6.5t42.5 -20t30.5 -33.5t11.5 -48q0 -29 -12.5 -50.5t-32.5 -35.5t-45 -20.5t-51 -6.5q-27 0 -49.5 3.5t-43 10t-41 16.5t-43.5 24q-15 9 -30 9q-23 0 -40 -17t-17 -40q0 -15 7.5 -27t18.5 -21q51 -40 113 -55t125 -15q50 0 98 15.5
t86 44.5t61 72t23 97z" />
    <glyph glyph-name="six" unicode="6" horiz-adv-x="632" 
d="M587 214q0 44 -18.5 82t-52 66.5t-80.5 44.5t-104 16q-26 0 -64 -7t-73 -29q19 91 77 133.5t152 42.5q16 0 38.5 -1.5t41.5 -4.5q4 -1 12 -1q20 0 35.5 10t21.5 30q3 7 3 16q0 18 -10.5 33t-28.5 20q-26 7 -51 10t-61 3q-88 0 -157.5 -29.5t-118 -83.5t-74 -131
t-25.5 -172q0 -66 20 -117t56 -86t86 -53.5t110 -18.5q61 0 110.5 18.5t83.5 50t52.5 72.5t18.5 86zM460 204q0 -42 -36 -73t-104 -31t-103.5 30.5t-35.5 75.5q0 49 36.5 76.5t100.5 27.5q75 0 108.5 -30.5t33.5 -75.5z" />
    <glyph glyph-name="seven" unicode="7" horiz-adv-x="623" 
d="M578 609q0 25 -16 41t-41 16h-445q-23 0 -39.5 -17t-16.5 -40t16 -40t40 -17h341q-47 -50 -79.5 -109t-53 -122.5t-30 -131t-9.5 -134.5q0 -26 18.5 -44.5t44.5 -18.5t45 18.5t19 44.5q0 64 7 120t22.5 108t40.5 102.5t61 103.5q16 23 33 45t33 45q9 13 9 30z" />
    <glyph glyph-name="eight" unicode="8" horiz-adv-x="666" 
d="M606 195q0 57 -30 101t-87 70q33 27 50 62t17 73q0 36 -15.5 68t-44.5 56.5t-70.5 38.5t-92.5 14t-92.5 -14t-70.5 -38.5t-44.5 -56.5t-15.5 -68q0 -38 17 -73t50 -62q-57 -26 -87 -70t-30 -101q0 -42 19.5 -80t55.5 -66.5t86 -45t112 -16.5q61 0 111.5 16.5t86.5 45
t55.5 66.5t19.5 80zM433 489q0 -20 -8.5 -36.5t-22.5 -28t-32 -17.5t-37 -6t-37 6t-32 17t-22.5 27.5t-8.5 37.5q0 38 26.5 59.5t73.5 21.5t73.5 -23t26.5 -58zM479 201q0 -45 -39 -73.5t-107 -28.5t-107 28.5t-39 73.5t41 72.5t105 27.5t105 -27.5t41 -72.5z" />
    <glyph glyph-name="nine" unicode="9" horiz-adv-x="632" 
d="M582 403q0 66 -19.5 117t-55 86t-86 53.5t-112.5 18.5t-110.5 -18.5t-83 -49t-52.5 -71t-18 -85.5q0 -44 18.5 -82.5t51.5 -67t80 -45t104 -16.5q26 0 64 6.5t73 28.5q-19 -91 -76.5 -133.5t-151.5 -42.5q-16 0 -38.5 1.5t-41.5 4.5q-4 1 -12 1q-20 0 -36 -10t-22 -30
q-2 -5 -2 -8v-8q0 -18 10.5 -33t28.5 -20q26 -7 50.5 -10t60.5 -3q88 0 157.5 29.5t118 83.5t74.5 131t26 172zM451 459q0 -49 -37 -76.5t-101 -27.5q-75 0 -108 30.5t-33 75.5q0 42 35.5 73t103.5 31t104 -30.5t36 -75.5z" />
    <glyph glyph-name="colon" unicode=":" horiz-adv-x="317" 
d="M227 366q0 29 -20 48.5t-49 19.5t-48.5 -19.5t-19.5 -48.5t19.5 -49t48.5 -20t49 20t20 49zM227 62q0 29 -20 48.5t-49 19.5t-48.5 -19.5t-19.5 -48.5t19.5 -49t48.5 -20t49 20t20 49z" />
    <glyph glyph-name="semicolon" unicode=";" horiz-adv-x="321" 
d="M225 365q0 29 -20 49t-49 20t-49 -20t-20 -49t20 -48.5t49 -19.5t49 19.5t20 48.5zM231 38q0 18 -4.5 34.5t-13.5 29t-23 20.5t-34 8q-29 0 -49 -20t-20 -49t18 -46.5t45 -23.5v-5q1 -24 -9 -43.5t-22.5 -35.5t-23 -29t-10.5 -22q0 -11 8 -19t19 -8t21 8q44 36 71 90
t27 111z" />
    <glyph glyph-name="semicolon" unicode="&#x37e;" horiz-adv-x="321" 
d="M225 365q0 29 -20 49t-49 20t-49 -20t-20 -49t20 -48.5t49 -19.5t49 19.5t20 48.5zM231 38q0 18 -4.5 34.5t-13.5 29t-23 20.5t-34 8q-29 0 -49 -20t-20 -49t18 -46.5t45 -23.5v-5q1 -24 -9 -43.5t-22.5 -35.5t-23 -29t-10.5 -22q0 -11 8 -19t19 -8t21 8q44 36 71 90
t27 111z" />
    <glyph glyph-name="less" unicode="&#x3c;" horiz-adv-x="657" 
d="M537 46q0 14 -7 26.5t-20 19.5l-268 152l268 151q13 7 20 19.5t7 26.5q0 23 -15.5 38.5t-37.5 15.5q-16 0 -27 -7l-349 -198q-28 -16 -28 -46q0 -31 28 -47l349 -198q11 -7 27 -7q22 0 37.5 15.5t15.5 38.5z" />
    <glyph glyph-name="equal" unicode="=" horiz-adv-x="529" 
d="M444 328q0 20 -13.5 33.5t-33.5 13.5h-265q-20 0 -33.5 -13.5t-13.5 -33.5t13.5 -33.5t33.5 -13.5h265q20 0 33.5 13.5t13.5 33.5zM444 157q0 20 -13.5 33.5t-33.5 13.5h-265q-20 0 -33.5 -13.5t-13.5 -33.5t13.5 -33.5t33.5 -13.5h265q20 0 33.5 13.5t13.5 33.5z" />
    <glyph glyph-name="greater" unicode="&#x3e;" horiz-adv-x="657" 
d="M577 244q0 30 -28 46l-349 198q-11 7 -27 7q-22 0 -37.5 -15.5t-15.5 -38.5q0 -14 7 -26.5t20 -19.5l268 -151l-268 -152q-13 -7 -20 -19.5t-7 -26.5q0 -23 15.5 -38.5t37.5 -15.5q16 0 27 7l349 198q28 16 28 47z" />
    <glyph glyph-name="question" unicode="?" horiz-adv-x="548" 
d="M478 505q0 48 -21.5 81t-55 53.5t-75.5 29.5t-82 9q-21 0 -55.5 -4.5t-67.5 -15.5t-57 -30t-24 -47q0 -23 16 -38t39 -15q15 0 29 6q18 7 32 12.5t27.5 9.5t28.5 5.5t35 1.5q16 0 34.5 -2.5t34 -9t25.5 -19t10 -33.5q0 -22 -12 -41t-29.5 -38t-38.5 -39t-38.5 -42.5
t-29.5 -49t-12 -59.5q0 -20 14 -35.5t34 -15.5q31 0 44 15t25 40q11 22 22 39t23 31.5t26 28.5l31 31q31 30 49.5 63t18.5 78zM316 62q0 29 -20 48.5t-49 19.5q-28 0 -48 -19.5t-20 -48.5t20 -49t48 -20q29 0 49 20t20 49z" />
    <glyph glyph-name="at" unicode="@" horiz-adv-x="812" 
d="M787 106q0 14 -10 24t-24 10q-7 0 -13 -3q-40 -19 -76.5 -33.5t-74 -24t-76.5 -14.5t-84 -5q-62 0 -113.5 18.5t-89 54t-58 85.5t-20.5 113q0 55 14 104.5t42.5 87t72.5 59t104 21.5q31 0 59 -7.5t49 -23t33.5 -40t12.5 -58.5v-27q-15 24 -41.5 35.5t-54.5 11.5
q-36 0 -64.5 -13.5t-49 -37t-31 -54t-10.5 -64.5t11 -64.5t31 -54t49 -37t64 -13.5q24 0 52.5 11.5t41.5 34.5q0 -18 13.5 -30.5t31.5 -12.5q19 0 31.5 12.5t12.5 31.5v271q0 51 -19.5 89.5t-52 64t-75.5 38t-90 12.5q-76 0 -135.5 -27t-100.5 -74t-62.5 -110t-21.5 -136
q0 -79 28.5 -142.5t77.5 -108.5t115.5 -69t142.5 -24q39 0 84 5.5t89.5 16t86.5 27t76 37.5q9 6 15.5 14t6.5 19zM533 325q0 -36 -21 -62.5t-59 -26.5t-59 26.5t-21 62.5t21 62.5t59 26.5t59 -26.5t21 -62.5z" />
    <glyph glyph-name="A" unicode="A" horiz-adv-x="665" 
d="M650 54q0 13 -5 26l-255 559q-8 17 -24 26.5t-34 9.5t-33 -10t-22 -26l-256 -559q-6 -12 -6 -25q0 -26 18.5 -44.5t44.5 -18.5q18 0 33 9.5t23 26.5l55 122h289l55 -122q8 -17 22.5 -26.5t33.5 -9.5q26 0 43.5 18t17.5 44zM427 263h-187l93 208z" />
    <glyph glyph-name="B" unicode="B" horiz-adv-x="687" 
d="M647 189q0 57 -31 102.5t-93 64.5q41 20 65 58.5t24 89.5q0 72 -56 117t-159 45h-231q-28 0 -47 -19t-19 -47v-533q0 -28 19 -47.5t47 -19.5h238q58 0 103 14.5t76 40t47.5 60t16.5 74.5zM479 479q0 -26 -17.5 -46.5t-53.5 -20.5h-175v131h175q36 0 53.5 -19t17.5 -45z
M514 208q0 -15 -5 -30t-16.5 -27.5t-29 -20t-41.5 -7.5h-189v168h189q24 0 41.5 -7.5t29 -19t16.5 -26.5t5 -30z" />
    <glyph glyph-name="C" unicode="C" horiz-adv-x="695" 
d="M655 143q0 25 -20 45.5t-46 20.5q-20 0 -37.5 -15.5t-39 -34t-52.5 -34t-78 -15.5t-85.5 18t-65.5 48.5t-42 71t-15 85.5t15 85.5t42 71t65.5 48t85.5 17.5q37 0 64 -10.5t47 -23.5t36.5 -23.5t33.5 -10.5q25 0 43.5 17t18.5 43q0 27 -21 48q-21 22 -47 38t-55 26
t-59.5 14.5t-60.5 4.5q-72 0 -134.5 -27t-108.5 -74t-72.5 -109.5t-26.5 -134.5t26.5 -135t72.5 -110t108.5 -74t134.5 -27q73 0 142.5 31t116.5 89q7 8 10.5 16.5t3.5 19.5z" />
    <glyph glyph-name="D" unicode="D" horiz-adv-x="719" 
d="M679 333q0 70 -23.5 131t-67.5 106t-106 70.5t-138 25.5h-177q-28 0 -47.5 -19t-19.5 -47v-533q0 -28 19.5 -47.5t47.5 -19.5h177q76 0 138 25.5t106 70.5t67.5 106t23.5 131zM546 333q0 -47 -14 -85.5t-40.5 -66.5t-65 -43t-88.5 -15h-104v420h104q50 0 88.5 -15t65 -43
t40.5 -66.5t14 -85.5z" />
    <glyph glyph-name="E" unicode="E" horiz-adv-x="648" 
d="M608 62q0 26 -18.5 44.5t-44.5 18.5h-312v148h165q26 0 44 18t18 44t-18 44.5t-44 18.5h-165v143h297q26 0 44.5 18.5t18.5 44.5t-18.5 44t-44.5 18h-363q-28 0 -47.5 -19t-19.5 -47v-533q0 -28 19.5 -47.5t47.5 -19.5h378q26 0 44.5 18t18.5 44z" />
    <glyph glyph-name="F" unicode="F" horiz-adv-x="611" 
d="M601 604q0 26 -18.5 44t-44.5 18h-372q-28 0 -47 -19t-19 -47v-542q0 -28 19 -47t47 -19t47.5 19t19.5 47v215h173q26 0 44 18t18 44t-18 44.5t-44 18.5h-173v143h305q26 0 44.5 18.5t18.5 44.5z" />
    <glyph glyph-name="G" unicode="G" horiz-adv-x="735" 
d="M670 145v164q0 28 -19.5 47.5t-47.5 19.5h-192q-25 0 -43 -17.5t-18 -42.5t18 -42.5t43 -17.5h125l1 -94q-15 -14 -33.5 -24t-39 -16t-41.5 -9t-41 -3q-47 0 -85.5 17.5t-66 47.5t-42.5 70.5t-15 86.5q0 45 15 85.5t42.5 71t66 48.5t85.5 18q40 0 67.5 -9.5t47.5 -21.5
t36 -21.5t34 -9.5q25 0 43 17t18 43t-21 47q-45 44 -104.5 61t-120.5 17q-72 0 -134.5 -27t-108.5 -74t-72.5 -110t-26.5 -135t26.5 -134.5t72.5 -109.5t108.5 -74t134.5 -27q37 0 75.5 7t74.5 21.5t67.5 36t55.5 51.5q8 11 11.5 19.5t3.5 22.5z" />
    <glyph glyph-name="H" unicode="H" horiz-adv-x="768" 
d="M668 59v549q0 28 -19 47.5t-47 19.5t-47.5 -19.5t-19.5 -47.5v-202h-302v202q0 28 -19 47.5t-47 19.5t-47.5 -19.5t-19.5 -47.5v-549q0 -28 19.5 -47.5t47.5 -19.5t47 19.5t19 47.5v222h302v-222q0 -28 19.5 -47.5t47.5 -19.5t47 19.5t19 47.5z" />
    <glyph glyph-name="I" unicode="I" horiz-adv-x="333" 
d="M233 59v549q0 28 -19 47.5t-47 19.5t-47.5 -19.5t-19.5 -47.5v-549q0 -28 19.5 -47.5t47.5 -19.5t47 19.5t19 47.5z" />
    <glyph glyph-name="J" unicode="J" horiz-adv-x="638" 
d="M553 267v341q0 27 -19 47t-47 20t-47.5 -19.5t-19.5 -47.5v-352q0 -66 -32 -107t-101 -41q-52 0 -83.5 29t-45.5 77q-7 23 -22 37.5t-41 14.5q-28 0 -46.5 -18t-18.5 -46v-7q0 -3 1 -6q8 -45 32.5 -82t59 -64t77 -41.5t87.5 -14.5q63 0 112.5 21t83.5 58.5t52 88.5
t18 112z" />
    <glyph glyph-name="K" unicode="K" horiz-adv-x="712" 
d="M662 54q0 17 -9 32l-202 328l158 155q19 19 19 44q0 26 -18 44t-44 18q-25 0 -43 -18l-290 -284v235q0 27 -19 47t-47 20t-47.5 -19.5t-19.5 -47.5v-549q0 -28 19.5 -47.5t47.5 -19.5t47 20t19 47v141q32 32 63.5 62.5t63.5 62.5l188 -303q8 -14 22.5 -22t30.5 -8
q26 0 43.5 18t17.5 44z" />
    <glyph glyph-name="L" unicode="L" horiz-adv-x="613" 
d="M598 63q0 26 -18.5 44t-44.5 18h-301v483q0 28 -19.5 47.5t-47.5 19.5t-47.5 -19.5t-19.5 -47.5v-541q0 -28 19.5 -47.5t47.5 -19.5h368q26 0 44.5 18.5t18.5 44.5z" />
    <glyph glyph-name="M" unicode="M" horiz-adv-x="879" 
d="M779 54v558q0 26 -18.5 44.5t-44.5 18.5q-20 0 -35 -11t-23 -28l-218 -447l-220 447q-8 17 -23 28t-35 11q-26 0 -44 -18t-18 -44v-558q0 -26 18 -44.5t44 -18.5t44.5 18.5t18.5 44.5v295l162 -324q16 -34 53 -34q36 0 53 33l1.5 2.5t9 18.5t24.5 49.5t47.5 96
t78.5 158.5v-296q0 -26 18 -44t44 -18t44.5 18t18.5 44z" />
    <glyph glyph-name="N" unicode="N" horiz-adv-x="762" 
d="M662 54v558q0 26 -18.5 44.5t-44.5 18.5t-44 -18.5t-18 -44.5v-386q-77 99 -137.5 178t-102.5 134t-64.5 84.5l-22.5 29.5q-8 10 -20 16.5t-25 6.5q-30 0 -47.5 -20t-17.5 -43v-558q0 -26 18 -44t44 -18t44.5 18t18.5 44v386l326 -425q18 -23 48 -23q26 0 44.5 18
t18.5 44z" />
    <glyph glyph-name="O" unicode="O" 
d="M723 333q0 72 -26.5 135t-72 109.5t-108 73.5t-134.5 27t-134.5 -27t-108.5 -73.5t-72.5 -109.5t-26.5 -135t26.5 -135t72.5 -110t108.5 -74t134.5 -27t134.5 27t108 74t72 110t26.5 135zM590 333q0 -46 -15 -86.5t-42 -71t-65.5 -48t-85.5 -17.5t-85.5 17.5t-66 48
t-42.5 71t-15 86.5t15 86.5t42.5 70.5t66 47.5t85.5 17.5t85.5 -17.5t65.5 -47.5t42 -70.5t15 -86.5z" />
    <glyph glyph-name="P" unicode="P" horiz-adv-x="676" 
d="M658 458q0 40 -14 78t-43.5 66.5t-75.5 46t-111 17.5h-248q-28 0 -47 -19t-19 -47v-542q0 -28 19 -47t47 -19t47.5 19t19.5 47v194h181q65 0 111 17t75.5 45.5t43.5 65.5t14 78zM524 458q0 -15 -5 -30t-16 -26.5t-28.5 -19t-41.5 -7.5h-200v169h200q24 0 41.5 -8
t28.5 -20t16 -27.5t5 -30.5z" />
    <glyph glyph-name="Q" unicode="Q" 
d="M723 332q0 72 -26.5 135t-72 110t-108 74t-134.5 27t-134.5 -27t-108.5 -74t-72.5 -110t-26.5 -135t26.5 -135t72.5 -109.5t108.5 -73.5t134.5 -27q16 0 30.5 1.5t29.5 3.5l58 -110q12 -23 35.5 -31t46.5 4q23 11 31 35.5t-4 47.5l-51 97q37 22 67.5 53.5t52.5 70
t33.5 82t11.5 91.5zM590 332q0 -59 -24 -107.5t-66 -78.5l-43 83q-12 23 -36 30t-47 -4t-30.5 -35.5t4.5 -47.5l33 -62q-47 0 -85 17.5t-65.5 47.5t-42.5 70.5t-15 86.5t15 86.5t42.5 71t66 48t85.5 17.5t85.5 -17.5t65.5 -48t42 -71t15 -86.5z" />
    <glyph glyph-name="R" unicode="R" horiz-adv-x="727" 
d="M657 466q0 55 -19.5 93t-52.5 62t-77.5 34.5t-93.5 10.5h-248q-28 0 -47 -19t-19 -47v-542q0 -28 19 -47t47 -19q27 0 47 19t20 47v211h183q0 -1 8.5 -18t20.5 -42t27 -54.5t28 -56t22.5 -46t12.5 -24.5q8 -17 23.5 -26.5t33.5 -9.5q27 0 46 19t19 45q0 8 -7 26t-17.5 41
t-23 48.5t-24.5 49.5t-22 42.5t-15 28.5q55 23 82 69t27 105zM524 462q0 -40 -27 -59.5t-64 -19.5h-200v160h200q38 0 64.5 -20.5t26.5 -60.5z" />
    <glyph glyph-name="S" unicode="S" horiz-adv-x="663" 
d="M618 189q0 45 -16 76.5t-42.5 53t-61.5 36t-73 26.5q-11 3 -30.5 8.5t-42 12.5t-46.5 16t-43 20.5t-31 25t-12 29.5q0 23 15.5 35.5t37.5 18.5t45.5 7t39.5 1q45 0 86 -8.5t83 -23.5q13 -5 24 -5q26 0 44.5 18.5t18.5 44.5q0 20 -11 34t-28 22q-21 10 -49 17.5t-58 13
t-59.5 8t-52.5 2.5q-45 0 -93 -8t-87 -28t-64 -56t-25 -91q0 -64 29.5 -103t73.5 -63t96 -38.5t96 -28t73.5 -31t29.5 -48.5q0 -24 -16 -38.5t-38.5 -22t-47 -10t-42.5 -2.5q-29 0 -54.5 3.5t-49.5 10t-48 16.5t-49 24q-14 8 -29 8q-25 0 -43 -19t-18 -43q0 -22 17 -40
t43.5 -31.5t59 -23.5t64.5 -16t60 -9t45 -3q49 0 99 9.5t90 32.5t65 62t25 98z" />
    <glyph glyph-name="T" unicode="T" horiz-adv-x="625" 
d="M625 603q0 26 -18.5 44.5t-44.5 18.5h-500q-26 0 -44 -18.5t-18 -44.5t18 -44t44 -18h184v-482q0 -28 19 -47.5t47 -19.5t47.5 19.5t19.5 47.5v482h183q26 0 44.5 18t18.5 44z" />
    <glyph glyph-name="U" unicode="U" horiz-adv-x="759" 
d="M669 272v336q0 28 -19.5 47.5t-47.5 19.5t-47.5 -19.5t-19.5 -47.5v-353q0 -66 -40.5 -106.5t-115.5 -40.5t-115.5 40.5t-40.5 106.5v353q0 28 -19.5 47.5t-47.5 19.5t-47 -19.5t-19 -47.5v-336q0 -65 21 -117.5t59 -90t91 -57.5t118 -20t118.5 20t91.5 57.5t59 90
t21 117.5z" />
    <glyph glyph-name="V" unicode="V" horiz-adv-x="639" 
d="M624 613q0 26 -18 44t-44 18q-18 0 -33 -9.5t-23 -26.5l-187 -447l-186 447q-7 17 -23 26.5t-34 9.5q-25 0 -43 -19t-18 -44q0 -12 5 -25l243 -559q8 -17 23 -26.5t34 -9.5q18 0 33.5 9.5t22.5 26.5l242 559q6 12 6 26z" />
    <glyph glyph-name="W" unicode="W" horiz-adv-x="841" 
d="M826 613q0 26 -18 44t-44 18q-20 0 -36.5 -12t-22.5 -31l-120 -375l-108 375q-5 19 -21 31t-36 12t-35.5 -12t-20.5 -31l-107 -374l-121 374q-6 19 -22.5 31t-36.5 12q-26 0 -44 -18t-18 -44q0 -7 12 -48.5t31 -100.5t41 -127.5t42.5 -130.5t36 -109t20.5 -62
q6 -19 22.5 -31t36.5 -12t37 11.5t22 31.5l105 366l105 -366q5 -20 21.5 -31.5t36.5 -11.5t36.5 12t22.5 31q5 15 20.5 62t36 109t42.5 130.5t41 127.5t31 100.5t12 48.5z" />
    <glyph glyph-name="X" unicode="X" horiz-adv-x="617" 
d="M587 52q0 23 -13 39l-189 244l187 242q12 15 12 36q0 26 -18 44t-44 18q-30 0 -47 -23l-167 -217l-167 217q-8 11 -21.5 17t-27.5 6q-25 0 -43 -17t-18 -43q0 -19 13 -37l187 -243l-188 -244q-13 -18 -13 -38q0 -26 17.5 -43.5t43.5 -17.5q31 0 49 24l168 219l169 -218
q19 -25 51 -25q26 0 42.5 17.5t16.5 42.5z" />
    <glyph glyph-name="Y" unicode="Y" horiz-adv-x="618" 
d="M603 614q0 26 -17.5 43.5t-43.5 17.5q-30 0 -48 -24l-185 -253l-185 253q-18 24 -48 24q-26 0 -43.5 -17t-17.5 -43q0 -22 12 -37l216 -288v-231q0 -27 19 -47t47 -20t47.5 19.5t19.5 47.5v231l215 288q12 15 12 36z" />
    <glyph glyph-name="Z" unicode="Z" horiz-adv-x="658" 
d="M613 63q0 26 -18 44t-44 18h-314l360 440q14 17 14 39q0 26 -18 44t-44 18h-425q-26 0 -44 -18t-18 -44t18 -44.5t44 -18.5h294l-359 -440q-14 -17 -14 -38q0 -26 18.5 -44.5t44.5 -18.5h443q26 0 44 18.5t18 44.5z" />
    <glyph glyph-name="bracketleft" unicode="[" horiz-adv-x="387" 
d="M342 -86q0 19 -13.5 32.5t-32.5 13.5h-88v651h88q19 0 32.5 13.5t13.5 32.5t-13.5 32.5t-32.5 13.5h-142q-23 0 -38.5 -15.5t-15.5 -38.5v-727q0 -23 15.5 -38.5t38.5 -15.5h142q19 0 32.5 13.5t13.5 32.5z" />
    <glyph glyph-name="backslash" unicode="\" horiz-adv-x="396" 
d="M366 -63v8t-2 8l-245 741q-5 14 -17 22.5t-26 8.5q-10 0 -15 -2q-15 -5 -23.5 -17.5t-7.5 -27.5q0 -5 2 -13l245 -741q5 -14 16.5 -22.5t25.5 -8.5h8t8 2q14 5 22 16.5t9 25.5z" />
    <glyph glyph-name="bracketright" unicode="]" horiz-adv-x="387" 
d="M287 -78v727q0 23 -15.5 38.5t-38.5 15.5h-142q-19 0 -32.5 -13.5t-13.5 -32.5t13.5 -32.5t32.5 -13.5h88v-651h-88q-19 0 -32.5 -13.5t-13.5 -32.5t13.5 -32.5t32.5 -13.5h142q23 0 38.5 15.5t15.5 38.5z" />
    <glyph glyph-name="asciicircum" unicode="^" horiz-adv-x="460" 
d="M420 378q0 11 -6 22l-146 253q-13 22 -39 22q-25 0 -38 -23l-145 -252q-6 -11 -6 -22q0 -18 13 -31t31 -13q26 0 39 22l107 186l107 -186q13 -22 39 -22q18 0 31 13t13 31z" />
    <glyph glyph-name="underscore" unicode="_" horiz-adv-x="452" 
d="M453 -77v64h-454v-64h454z" />
    <glyph glyph-name="grave" unicode="`" horiz-adv-x="368" 
d="M288 539q0 24 -19 37l-117 80q-13 8 -26 8q-19 0 -32.5 -13t-13.5 -32q0 -25 20 -38l118 -80q10 -7 25 -7q19 0 32 13t13 32z" />
    <glyph glyph-name="a" unicode="a" horiz-adv-x="509" 
d="M454 53v214q0 51 -16 85t-44 55t-67 30t-85 9q-18 0 -48.5 -2.5t-60 -10.5t-51 -23t-21.5 -39q0 -21 14.5 -36t36.5 -15q10 0 23 3.5t28 7.5t32.5 7.5t35.5 3.5q31 0 51 -4t31 -15t15.5 -30t4.5 -49q-26 22 -58.5 30t-64.5 8q-33 0 -62 -9.5t-51 -28.5t-34.5 -46
t-12.5 -62q0 -32 13 -59t34.5 -46.5t49.5 -31t59 -11.5q18 0 37.5 3.5t37.5 11.5t32.5 20.5t23.5 29.5q0 -24 15.5 -42.5t40.5 -18.5t43 18t18 43zM333 136q0 -16 -9 -27t-22 -17.5t-28 -9t-28 -2.5t-26.5 3t-25 9.5t-18.5 17t-7 26.5t7 26.5t18.5 16.5t25 8.5t26.5 2.5
t28.5 -2t28.5 -8t21.5 -16.5t8.5 -27.5z" />
    <glyph glyph-name="b" unicode="b" horiz-adv-x="568" 
d="M533 217q0 47 -16.5 89t-45.5 73t-68.5 49t-85.5 18q-21 0 -40.5 -5.5t-35.5 -14.5t-27.5 -20t-17.5 -22v231q0 25 -17.5 42.5t-42.5 17.5t-43 -17.5t-18 -42.5v-562q0 -25 18 -43t43 -18q20 0 38 15.5t18 45.5q14 -28 48.5 -46.5t76.5 -18.5q46 0 85.5 18t68.5 49
t45.5 73t16.5 89zM412 217q0 -25 -7 -47t-21 -38.5t-34 -26t-46 -9.5t-46 9.5t-34 26t-21 38.5t-7 47t7 47t21 38.5t34 26t46 9.5t46 -9.5t34 -26t21 -38.5t7 -47z" />
    <glyph glyph-name="c" unicode="c" horiz-adv-x="481" 
d="M436 86q0 18 -12 33q-15 17 -37 17q-21 0 -37 -12q-13 -9 -33.5 -19.5t-52.5 -10.5q-26 0 -46 10t-34 26.5t-21.5 39t-7.5 47.5t7.5 47.5t21.5 39t34 26.5t46 10q23 0 41 -5.5t35 -15.5q16 -9 34 -9q27 0 44 21q10 13 10 28q0 24 -22 43q-27 23 -64 33.5t-78 10.5
q-47 0 -89 -18t-73 -49t-49 -73t-18 -89t18 -89t49 -73t73 -49t89 -18q22 0 45 4.5t44 12t38 18t28 22.5q17 19 17 41z" />
    <glyph glyph-name="d" unicode="d" horiz-adv-x="568" 
d="M493 53v562q0 25 -17.5 42.5t-42.5 17.5t-42.5 -17.5t-17.5 -42.5v-231q-6 11 -17.5 22t-27.5 20t-35.5 14.5t-40.5 5.5q-46 0 -85.5 -18t-69 -49t-46 -73t-16.5 -89t16.5 -89t46 -73t69 -49t85.5 -18q42 0 76.5 18.5t48.5 46.5q0 -30 18 -45.5t38 -15.5q25 0 42.5 18
t17.5 43zM373 217q0 -25 -7.5 -47t-21.5 -38.5t-34 -26t-46 -9.5t-46 9.5t-34 26t-21 38.5t-7 47t7 47t21 38.5t34 26t46 9.5t46 -9.5t34 -26t21.5 -38.5t7.5 -47z" />
    <glyph glyph-name="e" unicode="e" horiz-adv-x="522" 
d="M482 217q0 50 -16.5 92t-46 72.5t-70 47.5t-87.5 17t-88.5 -18t-72.5 -49t-48.5 -73t-17.5 -89t18 -89t49 -73t72.5 -49t88.5 -18t94.5 15t85.5 50q15 13 15 31q0 24 -19 41q-16 14 -34 14q-21 0 -43 -17q-17 -14 -39.5 -23t-54.5 -9q-45 0 -74 24.5t-34 63.5h279
q17 0 30 11t13 28zM363 263h-201q8 38 34 59.5t66 21.5t66.5 -23t34.5 -58z" />
    <glyph glyph-name="f" unicode="f" horiz-adv-x="388" 
d="M383 623q0 21 -14.5 35.5t-35.5 14.5h-40q-44 0 -76.5 -13t-53.5 -36.5t-31.5 -55.5t-10.5 -70v-65h-56q-21 0 -35.5 -14.5t-14.5 -35.5t14.5 -35.5t35.5 -14.5h56v-281q0 -25 18 -42.5t43 -17.5t42.5 17.5t17.5 42.5v281h81q21 0 35.5 14.5t14.5 35.5t-14.5 35.5
t-35.5 14.5h-81v77q0 33 17.5 48t45.5 15h28q21 0 35.5 14.5t14.5 35.5z" />
    <glyph glyph-name="g" unicode="g" horiz-adv-x="563" 
d="M493 35v346q0 25 -17.5 43t-42.5 18q-20 0 -38.5 -15.5t-18.5 -45.5q-16 26 -49 45.5t-75 19.5q-46 0 -85.5 -17.5t-69 -47.5t-46 -71t-16.5 -88q0 -51 17.5 -92.5t47 -71t69 -45t83.5 -15.5q21 0 40.5 5.5t35.5 14.5t27.5 20t17.5 22v-35q0 -51 -29.5 -83.5t-93.5 -32.5
q-28 0 -56.5 4t-56.5 15q-22 8 -39.5 -0.5t-25.5 -28.5t0 -38t29 -28q35 -16 68.5 -22t80.5 -6q59 0 104.5 18t76 49.5t46.5 73.5t16 89zM373 222q0 -51 -28.5 -83.5t-80.5 -32.5t-80 32.5t-28 83.5t28 83.5t80 32.5t80.5 -32.5t28.5 -83.5z" />
    <glyph glyph-name="h" unicode="h" horiz-adv-x="571" 
d="M501 52v188q0 45 -12 83t-34.5 65t-55.5 42.5t-75 15.5q-40 0 -75 -18.5t-54 -46.5v234q0 25 -17.5 42.5t-42.5 17.5t-42.5 -17.5t-17.5 -42.5v-563q0 -25 17.5 -42.5t42.5 -17.5t42.5 17.5t17.5 42.5v182q0 20 5.5 38.5t16.5 33t29 23.5t43 9q47 0 69.5 -30t22.5 -74
v-182q0 -25 17.5 -42.5t42.5 -17.5t42.5 17.5t17.5 42.5z" />
    <glyph glyph-name="i" unicode="i" horiz-adv-x="283" 
d="M208 612q0 28 -19.5 47.5t-47.5 19.5t-47 -19.5t-19 -47.5t19 -47t47 -19t47.5 19t19.5 47zM202 52v329q0 25 -18 43t-43 18t-42.5 -18t-17.5 -43v-329q0 -25 17.5 -42.5t42.5 -17.5t43 17.5t18 42.5z" />
    <glyph glyph-name="j" unicode="j" horiz-adv-x="287" 
d="M217 611q0 28 -19 47.5t-47 19.5t-47.5 -19.5t-19.5 -47.5t19.5 -47t47.5 -19t47 19t19 47zM211 -7v389q0 25 -17.5 42.5t-42.5 17.5t-43 -17.5t-18 -42.5v-393q0 -17 -3 -32t-12 -27t-24.5 -19t-40.5 -7h-20q-21 0 -35.5 -14.5t-14.5 -35.5t14.5 -35.5t35.5 -14.5h36
q47 0 81.5 15t57.5 41t34.5 60.5t11.5 72.5z" />
    <glyph glyph-name="k" unicode="k" horiz-adv-x="538" 
d="M483 48q0 21 -14 37l-144 163l122 94q22 16 22 44q0 23 -17 39.5t-40 16.5q-19 0 -34 -12l-183 -141v325q0 25 -17.5 43t-42.5 18t-42.5 -18t-17.5 -43v-562q0 -25 17.5 -42.5t42.5 -17.5t42.5 17.5t17.5 42.5v96l41 32l149 -169q17 -19 42 -19q23 0 39.5 16.5t16.5 39.5
z" />
    <glyph glyph-name="l" unicode="l" horiz-adv-x="271" 
d="M196 52v562q0 25 -17.5 43t-42.5 18t-43 -18t-18 -43v-562q0 -25 18 -42.5t43 -17.5t42.5 17.5t17.5 42.5z" />
    <glyph glyph-name="m" unicode="m" horiz-adv-x="861" 
d="M791 52v192q0 45 -10.5 82t-32.5 64t-55.5 41.5t-78.5 14.5q-51 0 -91.5 -22t-62.5 -53q-22 35 -57 55t-83 20q-40 0 -72 -18.5t-54 -46.5q0 25 -17 43t-42 18t-42.5 -18t-17.5 -43v-329q0 -25 17.5 -42.5t42.5 -17.5t42.5 17.5t17.5 42.5v182q0 20 4.5 38.5t15 33
t28 23.5t42.5 9q47 0 67 -30t20 -74v-182q0 -25 18 -42.5t43 -17.5t42.5 17.5t17.5 42.5v182q0 20 5 38.5t15.5 33t27.5 23.5t42 9q47 0 67 -30t20 -74v-182q0 -25 17.5 -42.5t42.5 -17.5t43 17.5t18 42.5z" />
    <glyph glyph-name="n" unicode="n" horiz-adv-x="572" 
d="M502 52v188q0 45 -12 83t-34.5 65t-55.5 42.5t-75 15.5q-40 0 -74 -18.5t-56 -46.5q0 25 -17 43t-42 18t-43 -18t-18 -43v-329q0 -25 18 -42.5t43 -17.5t42.5 17.5t17.5 42.5v182q0 20 5.5 38.5t16.5 33t29 23.5t43 9q47 0 69 -30t22 -74v-182q0 -25 18 -42.5t43 -17.5
t42.5 17.5t17.5 42.5z" />
    <glyph glyph-name="o" unicode="o" horiz-adv-x="528" 
d="M493 217q0 47 -18 89t-49 73t-73 49t-89 18t-89 -18t-73 -49t-49 -73t-18 -89t18 -89t49 -73t73 -49t89 -18t89 18t73 49t49 73t18 89zM373 217q0 -25 -7.5 -47t-21.5 -38.5t-34 -26t-46 -9.5t-46 9.5t-34 26t-21 38.5t-7 47t7 47t21 38.5t34 26t46 9.5t46 -9.5t34 -26
t21.5 -38.5t7.5 -47z" />
    <glyph glyph-name="p" unicode="p" horiz-adv-x="568" 
d="M533 217q0 47 -16.5 89t-46 73t-69 49t-85.5 18q-42 0 -75 -19.5t-49 -45.5q0 30 -18.5 45.5t-38.5 15.5q-25 0 -42.5 -18t-17.5 -43v-516q0 -25 17.5 -42.5t42.5 -17.5t43 17.5t18 42.5v185q6 -11 17.5 -22t27 -20t35 -14.5t40.5 -5.5q46 0 85.5 18t69 49t46 73t16.5 89
zM412 217q0 -25 -7 -47t-21 -38.5t-34 -26t-46 -9.5t-46 9.5t-34 26t-21 38.5t-7 47t7 47t21 38.5t34 26t46 9.5t46 -9.5t34 -26t21 -38.5t7 -47z" />
    <glyph glyph-name="q" unicode="q" horiz-adv-x="568" 
d="M493 -135v516q0 25 -17.5 43t-42.5 18q-20 0 -38.5 -15.5t-18.5 -45.5q-16 26 -49 45.5t-75 19.5q-46 0 -85.5 -18t-69 -49t-46 -73t-16.5 -89t16.5 -89t46 -73t69 -49t85.5 -18q21 0 40.5 5.5t35 14.5t27 20t17.5 22v-185q0 -25 18 -42.5t43 -17.5t42.5 17.5t17.5 42.5z
M372 217q0 -25 -7 -47t-21 -38.5t-34 -26t-46 -9.5t-46 9.5t-34 26t-21 38.5t-7 47t7 47t21 38.5t34 26t46 9.5t46 -9.5t34 -26t21 -38.5t7 -47z" />
    <glyph glyph-name="r" unicode="r" horiz-adv-x="406" 
d="M396 392q0 23 -15.5 38.5t-38.5 15.5q-25 0 -45 -3t-37 -10.5t-33 -20t-32 -31.5q0 25 -17 43t-42 18t-43 -18t-18 -43v-329q0 -25 18 -42.5t43 -17.5t42.5 17.5t17.5 42.5v171q0 31 12.5 52.5t33 35.5t47 20.5t53.5 6.5q23 0 38.5 15.5t15.5 38.5z" />
    <glyph glyph-name="s" unicode="s" horiz-adv-x="472" 
d="M422 372q0 32 -34 46q-32 13 -64.5 20.5t-80.5 7.5q-37 0 -69 -9t-55 -25t-36.5 -39.5t-13.5 -51.5q0 -44 27 -76.5t93 -55.5q37 -13 60.5 -21t36 -15t17 -13t4.5 -15q0 -11 -8 -18.5t-20.5 -12t-28.5 -6.5t-31 -2q-27 0 -54 7t-54 19q-12 6 -23 6q-28 0 -39 -29
q-4 -8 -4 -18q0 -14 8 -27t23 -21q36 -18 77.5 -26.5t74.5 -8.5q48 0 84.5 11.5t60.5 31t36 44.5t12 53q0 31 -12 52.5t-32.5 37t-49 27t-61.5 22.5q-45 15 -63.5 22.5t-18.5 25.5q0 19 18 25t51 6q26 0 52 -6t50 -14q9 -3 17 -3q16 -1 29 7.5t18 24.5q3 9 3 17z" />
    <glyph glyph-name="t" unicode="t" horiz-adv-x="401" 
d="M386 383q0 21 -14.5 35.5t-35.5 14.5h-81v142q0 25 -18 42.5t-43 17.5t-42.5 -17.5t-17.5 -42.5v-142h-70q-21 0 -35 -14.5t-14 -35.5t14 -35.5t35 -14.5h70v-281q0 -25 17.5 -42.5t42.5 -17.5t43 17.5t18 42.5v281h81q21 0 35.5 14.5t14.5 35.5z" />
    <glyph glyph-name="u" unicode="u" horiz-adv-x="572" 
d="M497 53v328q0 25 -17.5 43t-42.5 18t-43 -18t-18 -43v-181q0 -20 -5.5 -38.5t-17 -33t-29.5 -23.5t-43 -9q-47 0 -68.5 30t-21.5 74v181q0 25 -17.5 43t-42.5 18t-43 -18t-18 -43v-187q0 -45 12 -83t34.5 -65t55.5 -42.5t75 -15.5q40 0 74.5 18.5t56.5 46.5q0 -25 17 -43
t42 -18t42.5 18t17.5 43z" />
    <glyph glyph-name="v" unicode="v" horiz-adv-x="440" 
d="M430 387q0 23 -15.5 39t-38.5 16q-16 0 -29.5 -9t-20.5 -23l-106 -233l-106 233q-7 14 -20.5 23t-29.5 9q-23 0 -38.5 -16t-15.5 -39q0 -10 5 -22l156 -341q7 -14 20 -23t29 -9t29 9t20 23l156 341q5 12 5 22z" />
    <glyph glyph-name="w" unicode="w" horiz-adv-x="646" 
d="M626 387q0 23 -15.5 39t-38.5 16q-17 0 -30.5 -9.5t-19.5 -25.5l-76 -207l-74 206q-6 16 -19 26t-30 10t-30 -10t-19 -26l-74 -206l-76 208q-6 16 -19 25t-30 9q-23 0 -39 -16t-16 -39q0 -5 1 -10t3 -10l129 -341q6 -16 20 -25t31 -9t30.5 10t19.5 26l69 192l69 -192
q6 -16 19.5 -26t30.5 -10t31 9t20 25l129 341q2 5 3 10t1 10z" />
    <glyph glyph-name="x" unicode="x" horiz-adv-x="433" 
d="M403 46q0 18 -11 32l-108 141l105 137q11 14 11 32q0 23 -15.5 38.5t-37.5 15.5q-27 0 -43 -21l-88 -114l-88 114q-16 21 -43 21q-22 0 -37.5 -15.5t-15.5 -38.5q0 -18 11 -32l106 -137l-108 -141q-11 -14 -11 -32q0 -23 15.5 -38.5t37.5 -15.5q27 0 43 21l90 118
l91 -118q16 -21 43 -21q22 0 37.5 15.5t15.5 38.5z" />
    <glyph glyph-name="y" unicode="y" horiz-adv-x="472" 
d="M452 388q0 23 -15 38.5t-38 15.5q-16 0 -29.5 -9t-20.5 -23l-106 -233l-107 233q-7 14 -20.5 23t-29.5 9q-23 0 -38.5 -15.5t-15.5 -38.5q0 -7 9.5 -32t24.5 -59t33 -73.5t34.5 -75t29.5 -63t18 -38.5q-23 -49 -59 -84.5t-84 -60.5q-14 -7 -23.5 -18t-9.5 -28
q0 -20 15 -36t35 -16q12 0 20 4q77 32 131 89t88 132l153 336q5 12 5 23z" />
    <glyph glyph-name="z" unicode="z" horiz-adv-x="489" 
d="M439 50q0 20 -15 35t-35 15h-176l209 245q13 16 13 35q0 22 -15 37.5t-37 15.5h-283q-20 0 -35 -15t-15 -35t15 -35t35 -15h172l-209 -245q-13 -16 -13 -38q0 -19 15.5 -34t34.5 -16q21 -1 42.5 -0.5t43.5 0.5h203q20 0 35 15t15 35z" />
    <glyph glyph-name="braceleft" unicode="{" horiz-adv-x="347" 
d="M327 -104q0 14 -10.5 24.5t-24.5 10.5h-23q-23 0 -33 12.5t-10 35.5v164q0 30 -6 55.5t-21.5 44t-42 29t-66.5 10.5q40 0 66.5 10.5t42 29t21.5 44.5t6 56v164q0 23 10 35.5t33 12.5h23q14 0 24.5 10.5t10.5 24.5t-10.5 24t-24.5 10h-75q-29 0 -47.5 -9t-29.5 -24
t-15.5 -35t-4.5 -42v-196q0 -44 -23.5 -61.5t-56.5 -17.5q-15 0 -25 -10t-10 -25t10.5 -25.5t24.5 -10.5q33 0 56.5 -17.5t23.5 -61.5v-196q0 -23 4.5 -43t15.5 -35t29.5 -23.5t47.5 -8.5h75q14 0 24.5 10t10.5 24z" />
    <glyph glyph-name="bar" unicode="|" horiz-adv-x="276" 
d="M176 -120v857q0 16 -11 27t-27 11t-27 -11t-11 -27v-857q0 -16 11 -27t27 -11t27 11t11 27z" />
    <glyph glyph-name="braceright" unicode="}" horiz-adv-x="347" 
d="M342 283q0 15 -10 25t-25 10q-33 0 -56.5 17.5t-23.5 61.5v196q0 22 -4.5 42t-15.5 35t-29.5 24t-47.5 9h-75q-14 0 -24.5 -10t-10.5 -24t10.5 -24.5t24.5 -10.5h23q23 0 33 -12.5t10 -35.5v-164q0 -30 6 -56t21.5 -44.5t41.5 -29t67 -10.5q-41 0 -67 -10.5t-41.5 -29
t-21.5 -44t-6 -55.5v-164q0 -23 -10 -35.5t-33 -12.5h-23q-14 0 -24.5 -10.5t-10.5 -24.5t10.5 -24t24.5 -10h75q29 0 47.5 8.5t29.5 23.5t15.5 35t4.5 43v196q0 44 23.5 61.5t56.5 17.5q14 0 24.5 10.5t10.5 25.5z" />
    <glyph glyph-name="asciitilde" unicode="~" horiz-adv-x="492" 
d="M457 330q0 16 -11 27t-27 11q-17 0 -24.5 -8.5t-14 -19t-16.5 -19t-32 -8.5q-18 0 -37 9t-39.5 20.5t-44 20.5t-51.5 9q-43 0 -75.5 -23t-46.5 -64q-3 -8 -3 -17q0 -17 11 -27.5t28 -10.5t24 9t13.5 20t18 20t37.5 9q24 0 44 -9t39.5 -20.5t39.5 -20.5t45 -9
q40 0 71.5 23t46.5 60q2 5 3 9t1 9z" />
    <glyph glyph-name="quotesinglbase" unicode="&#x201a;" horiz-adv-x="321" 
d="M231 38q0 18 -4.5 34.5t-13.5 29t-23 20.5t-34 8q-29 0 -49 -20t-20 -49t18 -46.5t45 -23.5v-5q1 -24 -9 -43.5t-22.5 -35.5t-23 -29t-10.5 -22q0 -11 8 -19t19 -8t21 8q44 36 71 90t27 111z" />
    <glyph glyph-name="florin" unicode="&#x192;" horiz-adv-x="500" 
d="M514 623q4 21 -8.5 35.5t-32.5 14.5h-41q-44 0 -79 -13t-60 -36.5t-41 -55.5t-22 -70l-18 -104h-56q-21 0 -38 -14.5t-21 -35.5t8 -35.5t33 -14.5h56l-58 -327q-6 -33 -26.5 -47.5t-47.5 -14.5h-22q-26 0 -40.5 -14.5t-18.5 -35.5t8 -35.5t33 -14.5h35q44 0 78.5 13
t60 36t41 55.5t22.5 70.5l56 314h81q20 0 37.5 14.5t21.5 35.5t-8.5 35.5t-32.5 14.5h-81l20 117q5 33 25.5 47.5t48.5 14.5h28q25 0 40 14.5t19 35.5z" />
    <glyph glyph-name="quotedblbase" unicode="&#x201e;" horiz-adv-x="532" 
d="M442 38q0 18 -4.5 34.5t-13.5 29t-23 20.5t-34 8q-29 0 -48.5 -20t-19.5 -49t17.5 -46.5t44.5 -23.5v-5q0 -24 -10 -43.5t-22 -36t-22 -29t-10 -21.5q0 -11 8 -19t19 -8q10 0 20 8q44 36 71 90t27 111zM230 38q0 18 -4.5 34.5t-13.5 29t-23 20.5t-34 8q-29 0 -49 -20
t-20 -49t18 -46.5t45 -23.5v-5q0 -24 -10 -43.5t-22 -36t-22 -29t-10 -21.5q0 -11 8 -19t19 -8q10 0 20 8q44 36 71 90t27 111z" />
    <glyph glyph-name="ellipsis" unicode="&#x2026;" horiz-adv-x="892" 
d="M802 62q0 29 -20 48.5t-49 19.5t-49 -19.5t-20 -48.5t20 -49t49 -20t49 20t20 49zM514 62q0 29 -19.5 48.5t-48.5 19.5t-49 -19.5t-20 -48.5t20 -49t49 -20t48.5 20t19.5 49zM227 62q0 29 -20 48.5t-49 19.5t-48.5 -19.5t-19.5 -48.5t19.5 -49t48.5 -20t49 20t20 49z" />
    <glyph glyph-name="dagger" unicode="&#x2020;" horiz-adv-x="456" 
d="M406 468q0 18 -12 30t-30 12h-89v118q0 20 -13.5 33.5t-33.5 13.5t-33 -13.5t-13 -33.5v-118h-89q-18 0 -30.5 -12t-12.5 -30t12.5 -30.5t30.5 -12.5h89v-521q0 -20 13 -33.5t33 -13.5t33.5 13.5t13.5 33.5v521h89q18 0 30 12.5t12 30.5z" />
    <glyph glyph-name="daggerdbl" unicode="&#x2021;" horiz-adv-x="456" 
d="M406 16q0 18 -12.5 30.5t-30.5 12.5h-88v366h88q18 0 30.5 12.5t12.5 30.5t-12.5 30.5t-30.5 12.5h-88v117q0 20 -13.5 33.5t-33.5 13.5t-33.5 -13.5t-13.5 -33.5v-117h-88q-18 0 -30.5 -12.5t-12.5 -30.5t12.5 -30.5t30.5 -12.5h88v-366h-88q-18 0 -30.5 -12.5
t-12.5 -30.5t12.5 -30.5t30.5 -12.5h88v-116q0 -20 13.5 -33.5t33.5 -13.5t33.5 13.5t13.5 33.5v116h88q18 0 30.5 12.5t12.5 30.5z" />
    <glyph glyph-name="circumflex" unicode="&#x2c6;" horiz-adv-x="343" 
d="M313 528q0 22 -18 33l-100 62q-11 8 -24 8t-20 -5l-103 -65q-18 -11 -18 -31q0 -12 6 -22q5 -9 14 -13.5t19 -4.5q11 0 20 6l82 52l83 -52q10 -6 22 -6q20 0 31 18q6 9 6 20z" />
    <glyph glyph-name="perthousand" unicode="&#x2030;" horiz-adv-x="1161" 
d="M1121 142q0 32 -12 60.5t-33 49.5t-49.5 33t-60.5 12t-60.5 -12t-49.5 -33t-33 -49.5t-12 -60.5t12 -60.5t33 -49.5t49.5 -33t60.5 -12t60.5 12t49.5 33t33 49.5t12 60.5zM748 142q0 32 -12 60.5t-33 49.5t-49.5 33t-60.5 12t-60.5 -12t-49.5 -33t-33 -49.5t-12 -60.5
t12 -60.5t33 -49.5t49.5 -33t60.5 -12t60.5 12t49.5 33t33 49.5t12 60.5zM593 637q0 22 -18 33q-7 4 -17 4q-21 0 -31 -18l-337 -612q-5 -10 -5 -18q0 -20 19 -30q8 -5 16 -5q21 0 32 18l337 612q4 7 4 16zM351 523q0 32 -12.5 60.5t-33.5 49.5t-49.5 33t-60.5 12t-60.5 -12
t-49.5 -33t-33 -49.5t-12 -60.5t12 -60.5t33 -49.5t49.5 -33t60.5 -12t60.5 12t49.5 33t33.5 49.5t12.5 60.5zM1036 142q0 -31 -16.5 -54t-53.5 -23t-53.5 23t-16.5 54t16.5 54t53.5 23t53.5 -23t16.5 -54zM663 142q0 -31 -16.5 -54t-53.5 -23t-53.5 23t-16.5 54t16.5 54
t53.5 23t53.5 -23t16.5 -54zM266 523q0 -31 -17 -54t-54 -23t-53.5 23t-16.5 54t16.5 54t53.5 23t54 -23t17 -54z" />
    <glyph glyph-name="guilsinglleft" unicode="&#x2039;" horiz-adv-x="458" 
d="M338 39q0 19 -14 33l-130 131l130 130q14 14 14 34t-13.5 33.5t-33.5 13.5q-19 0 -33 -14l-164 -163q-14 -14 -14 -34t14 -34l164 -164q13 -13 32 -13q20 0 34 13.5t14 33.5z" />
    <glyph glyph-name="OE" unicode="&#x152;" horiz-adv-x="1138" 
d="M1098 62q0 26 -18.5 44.5t-44.5 18.5h-312v148h165q26 0 44 18t18 44t-18 44.5t-44 18.5h-165v143h297q26 0 44 18.5t18 44.5t-18 44t-44 18h-364q-26 0 -44.5 -16.5t-21.5 -41.5q-43 34 -95.5 52.5t-112.5 18.5q-72 0 -134.5 -27t-108.5 -74t-72.5 -110t-26.5 -135
t26.5 -135t72.5 -109.5t108.5 -73.5t134.5 -27q60 0 112.5 18t95.5 52q3 -25 21.5 -41.5t44.5 -16.5h379q26 0 44.5 18t18.5 44zM590 333q0 -46 -15 -86.5t-42 -71t-65.5 -48t-85.5 -17.5t-85.5 17.5t-66 48t-42.5 71t-15 86.5t15 86.5t42.5 71t66 48t85.5 17.5t85.5 -17.5
t65.5 -48t42 -71t15 -86.5z" />
    <glyph glyph-name="quoteleft" unicode="&#x2018;" horiz-adv-x="320" 
d="M230 648q0 11 -8 19t-19 8q-10 0 -20 -8q-44 -36 -71 -90t-27 -111q0 -18 4.5 -34.5t13.5 -29t23 -20.5t34 -8q29 0 48.5 20t19.5 49t-17.5 47t-44.5 24v6q-1 23 9 42.5t22 35.5t22.5 28.5t10.5 21.5z" />
    <glyph glyph-name="quoteright" unicode="&#x2019;" horiz-adv-x="310" 
d="M235 583q0 18 -4.5 34.5t-13.5 29t-23 20.5t-34 8q-29 0 -48.5 -20t-19.5 -49t17.5 -46.5t44.5 -23.5v-5q1 -24 -9 -43.5t-22 -36t-22.5 -29t-10.5 -21.5q0 -11 8 -19t19 -8q10 0 20 8q44 36 71 90t27 111z" />
    <glyph glyph-name="quotedblleft" unicode="&#x201c;" horiz-adv-x="522" 
d="M432 648q0 11 -8 19t-19 8q-10 0 -20 -8q-44 -36 -71 -90t-27 -111q0 -18 4.5 -34.5t13.5 -29t23 -20.5t34 -8q29 0 49 20t20 49t-18 47t-45 24v6q-1 23 9 42.5t22 35.5t22.5 28.5t10.5 21.5zM220 648q0 11 -8 19t-19 8q-10 0 -20 -8q-44 -36 -71 -90t-27 -111
q0 -18 4.5 -34.5t13.5 -29t23 -20.5t34 -8q29 0 48.5 20t19.5 49t-17.5 47t-44.5 24v6q-1 23 9 42.5t22 35.5t22.5 28.5t10.5 21.5z" />
    <glyph glyph-name="quotedblright" unicode="&#x201d;" horiz-adv-x="522" 
d="M447 583q0 18 -4.5 34.5t-13.5 29t-23 20.5t-34 8q-29 0 -48.5 -20t-19.5 -49t17.5 -46.5t44.5 -23.5v-5q1 -24 -9 -43.5t-22 -36t-22.5 -29t-10.5 -21.5q0 -11 8 -19t19 -8q10 0 20 8q44 36 71 90t27 111zM235 583q0 18 -4.5 34.5t-13.5 29t-23 20.5t-34 8
q-29 0 -49 -20t-20 -49t18 -46.5t45 -23.5v-5q1 -24 -9 -43.5t-22 -36t-22.5 -29t-10.5 -21.5q0 -11 8 -19t19 -8q10 0 20 8q44 36 71 90t27 111z" />
    <glyph glyph-name="bullet" unicode="&#x2022;" horiz-adv-x="394" 
d="M324 363q0 26 -10 49t-27.5 40.5t-40.5 27.5t-49 10t-49.5 -10t-40.5 -27.5t-27 -40.5t-10 -49t10 -49.5t27 -40.5t40.5 -27t49.5 -10t49 10t40.5 27t27.5 40.5t10 49.5z" />
    <glyph glyph-name="endash" unicode="&#x2013;" horiz-adv-x="604" 
d="M524 265q0 23 -16 39t-39 16h-334q-23 0 -39 -16t-16 -39t16 -38.5t39 -15.5h334q23 0 39 15.5t16 38.5z" />
    <glyph glyph-name="emdash" unicode="&#x2014;" horiz-adv-x="968" 
d="M888 265q0 23 -16 39t-39 16h-698q-23 0 -39 -16t-16 -39t16 -38.5t39 -15.5h698q23 0 39 15.5t16 38.5z" />
    <glyph glyph-name="tilde" unicode="&#x2dc;" horiz-adv-x="346" 
d="M316 569q0 14 -11 24.5t-25 10.5q-8 0 -14.5 -3t-12.5 -7t-12.5 -7t-15.5 -3q-12 0 -23.5 3.5t-23 8t-23 8t-24.5 3.5q-12 0 -29.5 -5t-33.5 -14t-27 -21.5t-11 -27.5t11 -25t26 -10q10 0 16 4t12 8.5t14 8.5t22 4q12 0 23.5 -3.5t23 -7.5t23 -7.5t23.5 -3.5t28 4t30 12
t24 19.5t10 26.5z" />
    <glyph glyph-name="trademark" unicode="&#x2122;" horiz-adv-x="745" 
d="M705 371v269q0 13 -8.5 21.5t-21.5 8.5q-10 0 -17 -5.5t-11 -13.5l-105 -215l-106 215q-4 8 -11 13.5t-17 5.5q-13 0 -21.5 -8.5t-8.5 -21.5v-269q0 -13 8.5 -21.5t21.5 -8.5t21.5 8.5t8.5 21.5v142l78 -156q7 -16 26 -16q17 0 25 16l1.5 2.5t9 17t23 46t44.5 90.5v-142
q0 -13 8.5 -21.5t21.5 -8.5t21.5 8.5t8.5 21.5zM313 636q0 13 -8.5 21.5t-21.5 8.5h-241q-13 0 -21.5 -8.5t-8.5 -21.5t8.5 -21.5t21.5 -8.5h88v-233q0 -14 9 -23t23 -9t23 9t9 23v233h89q13 0 21.5 8.5t8.5 21.5z" />
    <glyph glyph-name="guilsinglright" unicode="&#x203a;" horiz-adv-x="458" 
d="M378 203q0 20 -14 34l-164 163q-14 14 -33 14q-20 0 -33.5 -13.5t-13.5 -33.5t14 -34l130 -130l-130 -131q-14 -14 -14 -33q0 -20 14 -33.5t34 -13.5q19 0 32 13l164 164q14 14 14 34z" />
    <glyph glyph-name="oe" unicode="&#x153;" horiz-adv-x="859" 
d="M819 217q0 48 -16 90t-44.5 72.5t-69 48.5t-89.5 18q-48 0 -91.5 -19.5t-75.5 -54.5q-32 35 -76.5 54.5t-92.5 19.5q-47 0 -89 -18t-73 -49t-49 -73t-18 -89t18 -89t49 -73t73 -49t89 -18q48 0 92.5 19.5t76.5 54.5q32 -35 75.5 -54.5t91.5 -19.5q24 0 48.5 3.5t48.5 11
t45 20t38 30.5q7 8 10.5 15t3.5 18q0 21 -15.5 37t-36.5 16q-16 0 -28 -7.5t-25.5 -17t-33 -17t-50.5 -7.5q-41 0 -72 22.5t-36 64.5h279q17 0 30 11.5t13 28.5zM700 263h-201q8 38 35 59.5t66 21.5q38 0 65 -22t35 -59zM373 217q0 -24 -7.5 -46t-21.5 -38.5t-34 -26.5
t-46 -10t-46 10t-34 26.5t-21 38.5t-7 46t7 46t21 38.5t34 26.5t46 10t46 -10t34 -26.5t21.5 -38.5t7.5 -46z" />
    <glyph glyph-name="Ydieresis" unicode="&#x178;" horiz-adv-x="618" 
d="M451 778q0 24 -17 40.5t-41 16.5q-23 0 -40 -17t-17 -40q0 -24 17 -40.5t41 -16.5q23 0 40 16.5t17 40.5zM281 778q0 24 -16.5 40.5t-40.5 16.5q-23 0 -40 -17t-17 -40q0 -24 17 -40.5t41 -16.5q23 0 40 16.5t17 40.5h-1zM603 614q0 26 -17.5 43.5t-43.5 17.5
q-30 0 -48 -24l-185 -253l-185 253q-18 24 -48 24q-26 0 -43.5 -17t-17.5 -43q0 -22 12 -37l216 -288v-231q0 -27 19 -47t47 -20t47.5 19.5t19.5 47.5v231l215 288q12 15 12 36z" />
    <glyph glyph-name="exclamdown" unicode="&#xa1;" horiz-adv-x="338" 
d="M238 605q0 29 -20 49t-49 20t-49 -20t-20 -49t20 -48.5t49 -19.5t49 19.5t20 48.5zM229 52v144q-11 86 -17.5 135.5t-9.5 74t-3.5 30.5l-0.5 6q-2 12 -9.5 20t-19.5 8t-19.5 -8t-9.5 -20l-0.5 -6t-3.5 -30.5t-9.5 -74t-17.5 -135.5v-144q0 -25 17.5 -42.5t42.5 -17.5
t42.5 17.5t17.5 42.5z" />
    <glyph glyph-name="cent" unicode="&#xa2;" horiz-adv-x="496" 
d="M451 103q0 26 -22 43q-19 14 -39.5 11t-39.5 -23q-28 -31 -65 -38v242q16 -3 29 -10t30 -21q18 -14 41 -13.5t38 17.5q13 14 13 33q0 25 -20 45q-26 25 -59.5 39t-71.5 17v57q0 8 -6 14t-14 6t-14.5 -6t-6.5 -14v-57q-44 -4 -82 -23t-66.5 -49.5t-44.5 -70.5t-16 -85
t16 -85t44.5 -70.5t66.5 -49.5t82 -23v-48q0 -8 6.5 -14t14.5 -6t14 6t6 14v48q47 5 87 26.5t66 53.5q13 18 13 34zM244 96q-42 8 -65 42t-23 79t23 79t65 42v-242z" />
    <glyph glyph-name="sterling" unicode="&#xa3;" horiz-adv-x="711" 
d="M671 600q0 38 -35 51q-20 8 -44 13t-49.5 8t-50.5 4.5t-46 1.5q-56 0 -102 -15t-79 -44.5t-51 -73.5t-18 -102v-60q-17 0 -37 0.5t-37.5 -4t-29.5 -17t-12 -37.5t12 -37t29.5 -16.5t37.5 -4t37 0.5v-154q-17 0 -40 1t-43 -3t-34 -16t-14 -39q0 -23 17 -40t40 -17h448
q23 0 40 17t17 40t-17 40t-40 17h-249l-1 154h161q24 0 40.5 17.5t16.5 40.5t-17 40t-40 17h-161v58q0 63 32.5 93t95.5 30q37 0 72.5 -5t71.5 -13q10 -3 21 -3q24 0 41 16t17 41z" />
    <glyph glyph-name="currency" unicode="&#xa4;" horiz-adv-x="777" 
d="M732 143q0 15 -8 29t-21 24q-23 17 -46.5 12t-42.5 -26q-61 -72 -155 -72q-66 0 -113.5 32.5t-72.5 86.5h113q16 0 27.5 11t11.5 27t-11.5 27.5t-27.5 11.5h-133q-1 7 -1.5 13.5t-0.5 13.5t0.5 13t1.5 13h133q16 0 27.5 11.5t11.5 27.5t-11.5 27.5t-27.5 11.5h-113
q25 54 72.5 86t113.5 32q38 0 72 -12.5t67 -40.5q10 -8 22 -12t24 -3t23.5 6t20.5 15q15 16 15 37q1 27 -22 50q-45 44 -101 63.5t-121 19.5q-58 0 -110 -18t-95 -50t-74 -76.5t-47 -96.5h-84q-16 0 -27.5 -11.5t-11.5 -27.5t11.5 -27.5t27.5 -11.5h70q-1 -7 -1 -13v-13v-14
q0 -6 1 -13h-70q-16 0 -27.5 -11.5t-11.5 -27.5t11.5 -27t27.5 -11h84q16 -53 47 -97t74 -76.5t95 -50.5t110 -18q74 0 138.5 28.5t120.5 91.5q14 15 14 36z" />
    <glyph glyph-name="yen" unicode="&#xa5;" horiz-adv-x="617" 
d="M602 612q0 30 -25 49q-17 12 -37 12q-14 0 -26.5 -6t-20.5 -18l-184 -251l-185 253q-18 24 -49 24q-19 0 -35 -12q-25 -19 -25 -48q0 -21 12 -37l143 -190h-42q-16 0 -26.5 -10.5t-10.5 -26.5t10.5 -27t26.5 -11h97l18 -23v-28l-115 1q-16 0 -26.5 -11t-10.5 -27
t10.5 -26.5t26.5 -10.5h115v-129q0 -28 19 -47.5t47 -19.5t47.5 19.5t19.5 47.5v129h113q16 0 26.5 10.5t10.5 26.5t-10.5 26.5t-26.5 10.5h-113v28l18 23h95q16 0 26.5 10.5t10.5 26.5t-10.5 27t-26.5 11h-40l141 188q12 16 12 36z" />
    <glyph glyph-name="section" unicode="&#xa7;" horiz-adv-x="597" 
d="M537 -27q0 52 -23.5 83.5t-65.5 59.5q16 10 31.5 24.5t27.5 32t19.5 37t7.5 39.5q0 52 -24.5 86t-61 56t-79.5 35.5t-79.5 26t-61 27.5t-24.5 40q0 19 11.5 30t28 16t34.5 6.5t32 1.5q37 0 71 -8.5t69 -19.5q10 -3 20 -3q21 0 36 14.5t15 35.5q0 17 -13 30.5t-34 23
t-46.5 15.5t-50.5 9.5t-46.5 5t-34.5 1.5q-34 0 -72.5 -7t-71 -24t-54 -44.5t-21.5 -69.5q0 -26 5 -46.5t15.5 -37t27 -31t38.5 -27.5q-35 -20 -59 -52t-24 -74q0 -56 24.5 -91t61 -57t79.5 -35.5t79.5 -27t61 -31.5t24.5 -48q0 -23 -14 -36.5t-34.5 -20.5t-43 -9t-38.5 -2
q-40 0 -76 10t-73 24l-12 4t-13 2q-20 0 -33 -14.5t-13 -34.5q0 -27 28.5 -45t66.5 -29t76.5 -15.5t59.5 -4.5q38 0 81.5 9t80 29t60.5 52t24 79zM407 252q0 -21 -9.5 -35.5t-24 -23.5t-33 -13t-36.5 -4q-17 0 -34.5 5.5t-31.5 16t-22.5 25.5t-8.5 34t10 31.5t25 20t33 10
t33 2.5t32.5 -4t32.5 -12t24.5 -21t9.5 -32z" />
    <glyph glyph-name="dieresis" unicode="&#xa8;" horiz-adv-x="393" 
d="M338 555q0 24 -16.5 40.5t-40.5 16.5t-40.5 -16.5t-16.5 -40.5t16.5 -40.5t40.5 -16.5t40.5 16.5t16.5 40.5zM169 555q0 24 -16.5 40.5t-40.5 16.5t-40.5 -16.5t-16.5 -40.5t17 -40.5t40 -16.5q24 0 40.5 16.5t16.5 40.5z" />
    <glyph glyph-name="copyright" unicode="&#xa9;" horiz-adv-x="791" 
d="M741 333q0 71 -27 134t-74 110t-109.5 74t-134.5 27q-71 0 -134 -27t-110 -74t-74.5 -110t-27.5 -134t27.5 -134t74.5 -110t110 -74.5t134 -27.5t134 27.5t110 74.5t74 110t27 134zM691 333q0 -61 -23 -115t-63 -95t-94 -65t-115 -24t-115 24t-94 65t-63 95t-23 115
t23 115t63 94.5t94 64t115 23.5t115 -23.5t94 -64t63 -94.5t23 -115zM535 249q0 11 -10.5 20.5t-21.5 9.5q-10 0 -18 -7t-17.5 -15t-22.5 -15t-34 -7q-41 0 -64.5 28t-23.5 67t23.5 67t64.5 28q16 0 27.5 -4.5t20.5 -10.5t16 -10.5t16 -4.5q13 0 22.5 8t9.5 22
q0 16 -13 27.5t-31 19t-37 11.5t-31 4q-33 0 -61 -12.5t-49 -33.5t-33 -49.5t-12 -61.5t12 -61.5t33 -49.5t49 -33t61 -12q14 0 35.5 5t41 15t33.5 24t14 31z" />
    <glyph glyph-name="ordfeminine" unicode="&#xaa;" horiz-adv-x="394" 
d="M324 411v146q0 34 -11 57.5t-30 37.5t-45.5 20t-57.5 6q-12 0 -32.5 -2t-40.5 -7t-34.5 -15.5t-14.5 -26.5q0 -14 9.5 -24t23.5 -10q16 0 37 7t45 7q21 0 34.5 -2.5t21 -10t10.5 -20.5t3 -33q-17 15 -39 20t-44 5q-45 0 -77 -25.5t-32 -73.5q0 -21 8.5 -39.5t23.5 -32
t34 -21t40 -7.5q25 0 51 10.5t38 33.5q0 -17 10.5 -29t27.5 -12t29 12t12 29zM242 467q0 -11 -6 -18t-15 -11.5t-19 -6.5t-19 -2q-18 0 -35.5 8.5t-17.5 29.5t18 29t35 8q9 0 19.5 -1.5t19 -5.5t14.5 -11t6 -19z" />
    <glyph glyph-name="guillemotleft" unicode="&#xab;" horiz-adv-x="699" 
d="M579 39q0 20 -14 34l-130 130l130 131q14 14 14 33q0 20 -14 34t-34 14q-19 0 -33 -14l-163 -164q-14 -14 -14 -34q0 -19 14 -33l163 -164q14 -14 33 -14q20 0 34 13.5t14 33.5zM337 39q0 20 -14 34l-130 130l130 131q14 14 14 33q0 20 -13.5 34t-33.5 14q-19 0 -33 -14
l-164 -164q-13 -13 -13 -34q0 -20 13 -33l164 -164q14 -14 33 -14q20 0 33.5 13.5t13.5 33.5z" />
    <glyph glyph-name="logicalnot" unicode="&#xac;" horiz-adv-x="644" 
d="M554 45v220q0 23 -16 38.5t-39 15.5h-406q-23 0 -38 -15.5t-15 -38.5t15 -38t38 -15h354v-167q0 -23 15 -38t38 -15t38.5 15t15.5 38z" />
    <glyph glyph-name="registered" unicode="&#xae;" horiz-adv-x="792" 
d="M742 333q0 71 -27 134t-74 110t-110 74t-134 27t-134.5 -27t-110.5 -74t-74.5 -110t-27.5 -134t27.5 -134t74.5 -110t110.5 -74.5t134.5 -27.5t134 27.5t110 74.5t74 110t27 134zM692 333q0 -61 -23 -115t-63 -95t-94 -65t-115 -24t-115 24t-94 65t-63.5 95t-23.5 115
t23.5 115t63.5 94.5t94 64t115 23.5t115 -23.5t94 -64t63 -94.5t23 -115zM531 206q0 6 -3 14q-17 35 -27 55.5t-13.5 26.5t-3.5 7q47 22 47 78q0 44 -28.5 68t-82.5 24h-109q-14 0 -23.5 -9.5t-9.5 -23.5v-239q0 -14 9.5 -23.5t23.5 -9.5t23.5 9.5t9.5 23.5v89h75l2.5 -6
t14 -29.5t34.5 -69.5q5 -11 19 -16q11 -4 24 2q18 10 18 29zM465 385q0 -11 -8.5 -21t-28.5 -10h-84v64h84q20 0 28.5 -11t8.5 -22z" />
    <glyph glyph-name="macron" unicode="&#xaf;" horiz-adv-x="457" 
d="M377 563q0 14 -10.5 24t-24.5 10h-228q-14 0 -24 -10t-10 -24t10 -24.5t24 -10.5h228q14 0 24.5 10.5t10.5 24.5z" />
    <glyph glyph-name="macron" unicode="&#x2c9;" horiz-adv-x="457" 
d="M377 563q0 14 -10.5 24t-24.5 10h-228q-14 0 -24 -10t-10 -24t10 -24.5t24 -10.5h228q14 0 24.5 10.5t10.5 24.5z" />
    <glyph glyph-name="degree" unicode="&#xb0;" horiz-adv-x="387" 
d="M193 391q30 0 56 11t45.5 30.5t31 45.5t11.5 56t-11.5 56t-31 45.5t-45.5 31t-56 11.5t-56 -11.5t-45.5 -31t-30.5 -45.5t-11 -56t11 -56t30.5 -45.5t45.5 -30.5t56 -11zM193 611q34 0 54 -22.5t20 -54.5t-20.5 -54t-53.5 -22t-53.5 22t-20.5 54t20 54.5t54 22.5z" />
    <glyph glyph-name="plusminus" unicode="&#xb1;" horiz-adv-x="922" 
d="M822 315q0 18 -12 30l-250 248q-12 12 -30 12t-30 -12t-12 -30t12 -30l179 -177h-538q-17 0 -29 -12t-12 -29t12 -29t29 -12h538l-179 -177q-12 -12 -12 -30t12 -30t30 -12t30 12l250 248q12 12 12 30z" />
    <glyph glyph-name="acute" unicode="&#xb4;" horiz-adv-x="368" 
d="M288 619q0 19 -13.5 32t-32.5 13q-13 0 -26 -8l-117 -80q-19 -13 -19 -37q0 -19 13 -32t32 -13q15 0 25 7l118 80q20 13 20 38z" />
    <glyph glyph-name="mu" unicode="&#xb5;" horiz-adv-x="572" 
d="M497 52v329q0 25 -17.5 43t-42.5 18t-43 -18t-18 -43v-181q0 -20 -5.5 -38.5t-17 -33t-29.5 -23.5t-43 -9q-47 0 -68.5 30t-21.5 74v181q0 25 -17.5 43t-42.5 18t-43 -18t-18 -43v-516q0 -25 18 -42.5t43 -17.5t42.5 17.5t17.5 42.5v131q27 -8 56 -8q40 0 74.5 18
t56.5 46q0 -25 17 -42.5t42 -17.5t42.5 17.5t17.5 42.5z" />
    <glyph glyph-name="mu" unicode="&#x3bc;" horiz-adv-x="572" 
d="M497 52v329q0 25 -17.5 43t-42.5 18t-43 -18t-18 -43v-181q0 -20 -5.5 -38.5t-17 -33t-29.5 -23.5t-43 -9q-47 0 -68.5 30t-21.5 74v181q0 25 -17.5 43t-42.5 18t-43 -18t-18 -43v-516q0 -25 18 -42.5t43 -17.5t42.5 17.5t17.5 42.5v131q27 -8 56 -8q40 0 74.5 18
t56.5 46q0 -25 17 -42.5t42 -17.5t42.5 17.5t17.5 42.5z" />
    <glyph glyph-name="paragraph" unicode="&#xb6;" horiz-adv-x="568" 
d="M468 -167v795q0 16 -11 27t-27 11h-193q-37 0 -69 -14t-56 -38t-38 -56t-14 -69t14 -69t38 -56t56 -38t69 -14v-479q0 -16 10.5 -26.5t26.5 -10.5t27 10.5t11 26.5v764h81v-764q0 -16 11 -26.5t27 -10.5t26.5 10.5t10.5 26.5z" />
    <glyph glyph-name="periodcentered" unicode="&#xb7;" horiz-adv-x="317" 
d="M227 342q0 29 -20 48.5t-49 19.5t-48.5 -19.5t-19.5 -48.5t19.5 -49t48.5 -20t49 20t20 49z" />
    <glyph glyph-name="periodcentered" unicode="&#x2219;" horiz-adv-x="317" 
d="M227 342q0 29 -20 48.5t-49 19.5t-48.5 -19.5t-19.5 -48.5t19.5 -49t48.5 -20t49 20t20 49z" />
    <glyph glyph-name="cedilla" unicode="&#xb8;" horiz-adv-x="329" 
d="M279 -125q0 21 -9 36.5t-24 25.5t-33.5 14.5t-37.5 4.5q-25 0 -49 -6l16 50h-46q-2 -4 -5.5 -14.5t-8 -22.5t-7.5 -23t-3 -16q0 -11 7 -16.5t17 -5.5q12 0 23.5 3t23.5 3q9 0 19 -1t19 -4.5t14.5 -10t5.5 -18.5q0 -23 -18 -32t-38 -9q-19 0 -37.5 4.5t-32.5 4.5
q-12 0 -18.5 -9t-6.5 -20q0 -14 11 -22t26.5 -12t32 -4.5t26.5 -0.5q23 0 46.5 6t43 18t31.5 31t12 46z" />
    <glyph glyph-name="ordmasculine" unicode="&#xba;" horiz-adv-x="401" 
d="M356 523q0 32 -12 60.5t-33 49.5t-49.5 33t-60.5 12t-60.5 -12t-49.5 -33t-33.5 -49.5t-12.5 -60.5t12.5 -60.5t33.5 -49.5t49.5 -33.5t60.5 -12.5t60.5 12.5t49.5 33.5t33 49.5t12 60.5zM274 523q0 -34 -19 -58t-54 -24t-54.5 24t-19.5 58t19.5 57.5t54.5 23.5t54 -23.5
t19 -57.5z" />
    <glyph glyph-name="guillemotright" unicode="&#xbb;" horiz-adv-x="699" 
d="M619 203q0 21 -13 34l-164 164q-14 14 -33 14q-20 0 -33.5 -14t-13.5 -34q0 -19 14 -33l130 -131l-130 -130q-14 -14 -14 -34t13.5 -33.5t33.5 -13.5q19 0 33 14l164 164q13 13 13 33zM378 203q0 20 -14 34l-163 164q-14 14 -33 14q-20 0 -34 -14t-14 -34q0 -19 14 -33
l130 -131l-130 -130q-14 -14 -14 -34t14 -33.5t34 -13.5q19 0 33 14l163 164q14 14 14 33z" />
    <glyph glyph-name="questiondown" unicode="&#xbf;" horiz-adv-x="568" 
d="M369 603q0 29 -19.5 49t-48.5 20t-49 -20t-20 -49t20 -48.5t49 -19.5t48.5 19.5t19.5 48.5zM508 84q0 23 -16 38t-39 15q-16 0 -29 -6q-18 -8 -32 -13t-27.5 -9t-28.5 -5.5t-35 -1.5q-16 0 -34.5 2.5t-34 9t-25.5 19t-10 33.5q0 22 12 41t29.5 38t38.5 39t38.5 42.5
t29.5 49t12 59.5q0 20 -13.5 35.5t-34.5 15.5q-31 0 -44 -15t-25 -40q-11 -22 -21.5 -39t-22.5 -31.5t-26.5 -29t-31.5 -30.5q-31 -30 -49.5 -63t-18.5 -78q0 -48 21.5 -81t55 -53.5t75 -29.5t82.5 -9q21 0 55.5 4.5t67.5 15.5t57 29.5t24 47.5z" />
    <glyph glyph-name="Agrave" unicode="&#xc0;" horiz-adv-x="665" 
d="M365 758q0 24 -19 37l-117 80q-13 8 -26 8q-19 0 -32.5 -13t-13.5 -32q0 -25 20 -38l118 -80q10 -7 25 -7q19 0 32 13t13 32zM650 54q0 13 -5 26l-255 559q-8 17 -24 26.5t-34 9.5t-33 -10t-22 -26l-256 -559q-6 -12 -6 -25q0 -26 18.5 -44.5t44.5 -18.5q18 0 33 9.5
t23 26.5l55 122h289l55 -122q8 -17 22.5 -26.5t33.5 -9.5q26 0 43.5 18t17.5 44zM427 263h-187l93 208z" />
    <glyph glyph-name="Aacute" unicode="&#xc1;" horiz-adv-x="665" 
d="M499 838q0 19 -13.5 32t-32.5 13q-13 0 -26 -8l-117 -80q-19 -13 -19 -37q0 -19 13 -32t32 -13q15 0 25 7l118 80q20 13 20 38zM650 54q0 13 -5 26l-255 559q-8 17 -24 26.5t-34 9.5t-33 -10t-22 -26l-256 -559q-6 -12 -6 -25q0 -26 18.5 -44.5t44.5 -18.5q18 0 33 9.5
t23 26.5l55 122h289l55 -122q8 -17 22.5 -26.5t33.5 -9.5q26 0 43.5 18t17.5 44zM427 263h-187l93 208z" />
    <glyph glyph-name="Acircumflex" unicode="&#xc2;" horiz-adv-x="665" 
d="M474 754q0 22 -18 33l-100 62q-11 8 -24 8t-20 -5l-103 -65q-8 -5 -12.5 -13.5t-5.5 -17.5q0 -12 6 -22q5 -9 14 -13.5t19 -4.5q11 0 20 6l82 52l83 -52q10 -6 22 -6q20 0 31 18q6 9 6 20zM650 54q0 13 -5 26l-255 559q-8 17 -24 26.5t-34 9.5t-33 -10t-22 -26l-256 -559
q-6 -12 -6 -25q0 -26 18.5 -44.5t44.5 -18.5q18 0 33 9.5t23 26.5l55 122h289l55 -122q8 -17 22.5 -26.5t33.5 -9.5q26 0 43.5 18t17.5 44zM427 263h-187l93 208z" />
    <glyph glyph-name="Atilde" unicode="&#xc3;" horiz-adv-x="665" 
d="M476 789q0 14 -11 24.5t-25 10.5q-8 0 -14.5 -3t-12.5 -7t-12.5 -7t-15.5 -3q-12 0 -23.5 3.5t-23 8t-23 8t-24.5 3.5q-12 0 -29.5 -5t-33.5 -14t-27 -21.5t-11 -27.5t11 -25t26 -10q10 0 16 4t12 8.5t14 8.5t22 4q12 0 23.5 -3.5t23 -7.5t23 -7.5t23.5 -3.5t28 4t30 12
t24 19.5t10 26.5zM650 54q0 13 -5 26l-255 559q-8 17 -24 26.5t-34 9.5t-33 -10t-22 -26l-256 -559q-6 -12 -6 -25q0 -26 18.5 -44.5t44.5 -18.5q18 0 33 9.5t23 26.5l55 122h289l55 -122q8 -17 22.5 -26.5t33.5 -9.5q26 0 43.5 18t17.5 44zM427 263h-187l93 208z" />
    <glyph glyph-name="Adieresis" unicode="&#xc4;" horiz-adv-x="665" 
d="M474 778q0 24 -16.5 40.5t-40.5 16.5q-23 0 -40 -16.5t-17 -40.5t17 -40.5t40 -16.5q24 0 40.5 16.5t16.5 40.5zM305 778q0 24 -16.5 40.5t-40.5 16.5q-23 0 -40 -16.5t-17 -40.5t17 -40.5t40 -16.5q24 0 40.5 16.5t16.5 40.5zM650 54q0 13 -5 26l-255 559
q-8 17 -24 26.5t-34 9.5t-33 -10t-22 -26l-256 -559q-6 -12 -6 -25q0 -26 18.5 -44.5t44.5 -18.5q18 0 33 9.5t23 26.5l55 122h289l55 -122q8 -17 22.5 -26.5t33.5 -9.5q26 0 43.5 18t17.5 44zM427 263h-187l93 208z" />
    <glyph glyph-name="Aring" unicode="&#xc5;" horiz-adv-x="665" 
d="M426 796q0 39 -27 66t-66 27q-19 0 -36 -7t-30 -20t-20.5 -30t-7.5 -36q0 -20 7.5 -37t20.5 -29.5t30 -20t36 -7.5t36 7.5t30 20.5t20 30t7 36zM375 796q0 -18 -11 -30.5t-31 -12.5q-19 0 -30.5 12.5t-11.5 30.5t11.5 30t30.5 12t30.5 -12t11.5 -30zM650 54q0 13 -5 26
l-255 559q-8 17 -24 26.5t-34 9.5t-33 -10t-22 -26l-256 -559q-6 -12 -6 -25q0 -26 18.5 -44.5t44.5 -18.5q18 0 33 9.5t23 26.5l55 122h289l55 -122q8 -17 22.5 -26.5t33.5 -9.5q26 0 43.5 18t17.5 44zM427 263h-187l93 208z" />
    <glyph glyph-name="AE" unicode="&#xc6;" horiz-adv-x="1012" 
d="M972 62q0 26 -18 44.5t-44 18.5h-313v148h165q26 0 44 18t18 44t-18 44.5t-44 18.5h-165v143h297q26 0 44.5 18.5t18.5 44.5t-18.5 44t-44.5 18h-411q-28 0 -47 -24l-424 -554q-12 -17 -12 -37q0 -14 5.5 -26.5t17.5 -21.5q18 -14 40 -12q13 1 25 7t20 17l97 127h259v-75
q0 -28 19.5 -47.5t47.5 -19.5h379q26 0 44 18t18 44zM464 254h-173l173 227v-227z" />
    <glyph glyph-name="Ccedilla" unicode="&#xc7;" horiz-adv-x="695" 
d="M655 143q0 25 -20 45.5t-46 20.5q-20 0 -37.5 -15.5t-39 -34t-52.5 -34t-78 -15.5t-85.5 18t-65.5 48.5t-42 71t-15 85.5t15 85.5t42 71t65.5 48t85.5 17.5q37 0 64 -10.5t47 -23.5t36.5 -23.5t33.5 -10.5q25 0 43.5 17t18.5 43q0 27 -21 48q-21 22 -47 38t-55 26
t-59.5 14.5t-60.5 4.5q-72 0 -134.5 -27t-108.5 -74t-72.5 -109.5t-26.5 -134.5t26.5 -135t72.5 -110t108.5 -74t134.5 -27q73 0 142.5 31t116.5 89q7 8 10.5 16.5t3.5 19.5zM534 -125q0 21 -9 36.5t-24 25.5t-33.5 14.5t-37.5 4.5q-25 0 -49 -6l16 50h-46q-2 -4 -5.5 -14.5
t-8 -22.5t-7.5 -23t-3 -16q0 -11 7 -16.5t17 -5.5q12 0 23.5 3t23.5 3q9 0 19 -1t19 -4.5t14.5 -10t5.5 -18.5q0 -23 -18 -32t-38 -9q-19 0 -37.5 4.5t-32.5 4.5q-12 0 -18.5 -9t-6.5 -20q0 -14 11 -22t26.5 -12t32 -4.5t26.5 -0.5q23 0 46.5 6t43 18t31.5 31t12 46z" />
    <glyph glyph-name="Egrave" unicode="&#xc8;" horiz-adv-x="648" 
d="M393 758q0 24 -19 37l-117 80q-13 8 -26 8q-19 0 -32.5 -13t-13.5 -32q0 -25 20 -38l118 -80q10 -7 25 -7q19 0 32 13t13 32zM608 62q0 26 -18.5 44.5t-44.5 18.5h-312v148h165q26 0 44 18t18 44t-18 44.5t-44 18.5h-165v143h297q26 0 44.5 18.5t18.5 44.5t-18.5 44
t-44.5 18h-363q-28 0 -47.5 -19t-19.5 -47v-533q0 -28 19.5 -47.5t47.5 -19.5h378q26 0 44.5 18t18.5 44z" />
    <glyph glyph-name="Eacute" unicode="&#xc9;" horiz-adv-x="648" 
d="M486 838q0 19 -13.5 32t-32.5 13q-13 0 -26 -8l-117 -80q-19 -13 -19 -37q0 -19 13 -32t32 -13q15 0 25 7l118 80q20 13 20 38zM608 62q0 26 -18.5 44.5t-44.5 18.5h-312v148h165q26 0 44 18t18 44t-18 44.5t-44 18.5h-165v143h297q26 0 44.5 18.5t18.5 44.5t-18.5 44
t-44.5 18h-363q-28 0 -47.5 -19t-19.5 -47v-533q0 -28 19.5 -47.5t47.5 -19.5h378q26 0 44.5 18t18.5 44z" />
    <glyph glyph-name="Ecircumflex" unicode="&#xca;" horiz-adv-x="648" 
d="M483 754q0 22 -19 33l-100 62q-10 8 -24 8q-12 0 -20 -5l-103 -65q-17 -11 -17 -31q-2 -11 6 -22q5 -9 14 -13.5t19 -4.5q9 0 20 6l82 52l83 -52q9 -6 22 -6q18 0 31 18q5 10 5 20h1zM608 62q0 26 -18.5 44.5t-44.5 18.5h-312v148h165q26 0 44 18t18 44t-18 44.5
t-44 18.5h-165v143h297q26 0 44.5 18.5t18.5 44.5t-18.5 44t-44.5 18h-363q-28 0 -47.5 -19t-19.5 -47v-533q0 -28 19.5 -47.5t47.5 -19.5h378q26 0 44.5 18t18.5 44z" />
    <glyph glyph-name="Edieresis" unicode="&#xcb;" horiz-adv-x="648" 
d="M483 778q0 24 -16.5 40.5t-40.5 16.5t-40.5 -17t-16.5 -40q0 -24 17 -40.5t40 -16.5q24 0 40.5 16.5t16.5 40.5zM314 778q0 24 -16.5 40.5t-40.5 16.5t-40.5 -17t-16.5 -40q0 -24 17 -40.5t40 -16.5q24 0 40.5 16.5t16.5 40.5zM608 62q0 26 -18.5 44.5t-44.5 18.5h-312
v148h165q26 0 44 18t18 44t-18 44.5t-44 18.5h-165v143h297q26 0 44.5 18.5t18.5 44.5t-18.5 44t-44.5 18h-363q-28 0 -47.5 -19t-19.5 -47v-533q0 -28 19.5 -47.5t47.5 -19.5h378q26 0 44.5 18t18.5 44z" />
    <glyph glyph-name="Igrave" unicode="&#xcc;" horiz-adv-x="333" 
d="M201 758q0 24 -19 37l-117 80q-13 8 -26 8q-19 0 -32.5 -13t-13.5 -32q0 -25 20 -38l118 -80q10 -7 25 -7q19 0 32 13t13 32zM233 59v549q0 28 -19 47.5t-47 19.5t-47.5 -19.5t-19.5 -47.5v-549q0 -28 19.5 -47.5t47.5 -19.5t47 19.5t19 47.5z" />
    <glyph glyph-name="Iacute" unicode="&#xcd;" horiz-adv-x="333" 
d="M335 838q0 19 -13.5 32t-32.5 13q-13 0 -26 -8l-117 -80q-19 -13 -19 -37q0 -19 13 -32t32 -13q15 0 25 7l118 80q20 13 20 38zM233 59v549q0 28 -19 47.5t-47 19.5t-47.5 -19.5t-19.5 -47.5v-549q0 -28 19.5 -47.5t47.5 -19.5t47 19.5t19 47.5z" />
    <glyph glyph-name="Icircumflex" unicode="&#xce;" horiz-adv-x="333" 
d="M308 754q0 22 -18 33l-100 62q-11 8 -24 8t-20 -5l-103 -65q-18 -11 -18 -31q0 -12 6 -22q5 -9 14 -13.5t19 -4.5q11 0 20 6l82 52l83 -52q10 -6 22 -6q20 0 31 18q6 9 6 20zM233 59v549q0 28 -19 47.5t-47 19.5t-47.5 -19.5t-19.5 -47.5v-549q0 -28 19.5 -47.5
t47.5 -19.5t47 19.5t19 47.5z" />
    <glyph glyph-name="Idieresis" unicode="&#xcf;" horiz-adv-x="333" 
d="M308 778q0 24 -16.5 40.5t-40.5 16.5t-40.5 -17t-16.5 -40q0 -24 17 -40.5t40 -16.5q24 0 40.5 16.5t16.5 40.5zM139 778q0 24 -16.5 40.5t-40.5 16.5t-40.5 -17t-16.5 -40q0 -24 17 -40.5t40 -16.5q24 0 40.5 16.5t16.5 40.5zM233 59v549q0 28 -19 47.5t-47 19.5
t-47.5 -19.5t-19.5 -47.5v-549q0 -28 19.5 -47.5t47.5 -19.5t47 19.5t19 47.5z" />
    <glyph glyph-name="Ntilde" unicode="&#xd1;" horiz-adv-x="762" 
d="M527 789q0 14 -11 24.5t-25 10.5q-8 0 -14.5 -3t-12.5 -7t-12.5 -7t-15.5 -3q-12 0 -23.5 3.5t-23 8t-23 8t-24.5 3.5q-12 0 -29.5 -5t-33.5 -14t-27 -21.5t-11 -27.5t11 -25t26 -10q10 0 16 4t12 8.5t14 8.5t22 4q12 0 23.5 -3.5t23 -7.5t23 -7.5t23.5 -3.5t28 4t30 12
t24 19.5t10 26.5zM662 54v558q0 26 -18.5 44.5t-44.5 18.5t-44 -18.5t-18 -44.5v-386q-77 99 -137.5 178t-102.5 134t-64.5 84.5l-22.5 29.5q-8 10 -20 16.5t-25 6.5q-30 0 -47.5 -20t-17.5 -43v-558q0 -26 18 -44t44 -18t44.5 18t18.5 44v386l326 -425q18 -23 48 -23
q26 0 44.5 18t18.5 44z" />
    <glyph glyph-name="Ograve" unicode="&#xd2;" 
d="M417 758q0 24 -19 37l-117 80q-13 8 -26 8q-19 0 -32.5 -13t-13.5 -32q0 -25 20 -38l118 -80q10 -7 25 -7q19 0 32 13t13 32zM723 333q0 72 -26.5 135t-72 109.5t-108 73.5t-134.5 27t-134.5 -27t-108.5 -73.5t-72.5 -109.5t-26.5 -135t26.5 -135t72.5 -110t108.5 -74
t134.5 -27t134.5 27t108 74t72 110t26.5 135zM590 333q0 -46 -15 -86.5t-42 -71t-65.5 -48t-85.5 -17.5t-85.5 17.5t-66 48t-42.5 71t-15 86.5t15 86.5t42.5 70.5t66 47.5t85.5 17.5t85.5 -17.5t65.5 -47.5t42 -70.5t15 -86.5z" />
    <glyph glyph-name="Oacute" unicode="&#xd3;" 
d="M547 838q0 19 -13.5 32t-32.5 13q-13 0 -26 -8l-117 -80q-19 -13 -19 -37q0 -19 13 -32t32 -13q15 0 25 7l118 80q20 13 20 38zM723 333q0 72 -26.5 135t-72 109.5t-108 73.5t-134.5 27t-134.5 -27t-108.5 -73.5t-72.5 -109.5t-26.5 -135t26.5 -135t72.5 -110t108.5 -74
t134.5 -27t134.5 27t108 74t72 110t26.5 135zM590 333q0 -46 -15 -86.5t-42 -71t-65.5 -48t-85.5 -17.5t-85.5 17.5t-66 48t-42.5 71t-15 86.5t15 86.5t42.5 70.5t66 47.5t85.5 17.5t85.5 -17.5t65.5 -47.5t42 -70.5t15 -86.5z" />
    <glyph glyph-name="Ocircumflex" unicode="&#xd4;" 
d="M523 754q0 22 -18 33l-100 62q-11 8 -24 8t-20 -5l-103 -65q-18 -11 -18 -31q0 -12 6 -22q5 -9 14 -13.5t19 -4.5q11 0 20 6l82 52l83 -52q10 -6 22 -6q20 0 31 18q6 9 6 20zM723 333q0 72 -26.5 135t-72 109.5t-108 73.5t-134.5 27t-134.5 -27t-108.5 -73.5
t-72.5 -109.5t-26.5 -135t26.5 -135t72.5 -110t108.5 -74t134.5 -27t134.5 27t108 74t72 110t26.5 135zM590 333q0 -46 -15 -86.5t-42 -71t-65.5 -48t-85.5 -17.5t-85.5 17.5t-66 48t-42.5 71t-15 86.5t15 86.5t42.5 70.5t66 47.5t85.5 17.5t85.5 -17.5t65.5 -47.5t42 -70.5
t15 -86.5z" />
    <glyph glyph-name="Otilde" unicode="&#xd5;" 
d="M525 789q0 14 -11.5 24.5t-25.5 10.5q-8 0 -14 -3t-12 -7t-13 -7t-16 -3q-12 0 -23.5 3.5t-22.5 8t-23 8t-25 3.5q-12 0 -29.5 -5t-33 -14t-27 -21.5t-11.5 -27.5t11.5 -25t26.5 -10q10 0 16 4t12 8.5t14 8.5t22 4q12 0 23.5 -3.5t23 -7.5t23 -7.5t23.5 -3.5t28 4t30 12
t24 19.5t10 26.5zM723 333q0 72 -26.5 135t-72 109.5t-108 73.5t-134.5 27t-134.5 -27t-108.5 -73.5t-72.5 -109.5t-26.5 -135t26.5 -135t72.5 -110t108.5 -74t134.5 -27t134.5 27t108 74t72 110t26.5 135zM590 333q0 -46 -15 -86.5t-42 -71t-65.5 -48t-85.5 -17.5
t-85.5 17.5t-66 48t-42.5 71t-15 86.5t15 86.5t42.5 70.5t66 47.5t85.5 17.5t85.5 -17.5t65.5 -47.5t42 -70.5t15 -86.5z" />
    <glyph glyph-name="Odieresis" unicode="&#xd6;" 
d="M523 778q0 24 -16.5 40.5t-40.5 16.5t-40.5 -16.5t-16.5 -40.5t16.5 -40.5t40.5 -16.5t40.5 16.5t16.5 40.5zM354 778q0 24 -16.5 40.5t-40.5 16.5t-40.5 -16.5t-16.5 -40.5t17 -40.5t40 -16.5q24 0 40.5 16.5t16.5 40.5zM723 333q0 72 -26.5 135t-72 109.5t-108 73.5
t-134.5 27t-134.5 -27t-108.5 -73.5t-72.5 -109.5t-26.5 -135t26.5 -135t72.5 -110t108.5 -74t134.5 -27t134.5 27t108 74t72 110t26.5 135zM590 333q0 -46 -15 -86.5t-42 -71t-65.5 -48t-85.5 -17.5t-85.5 17.5t-66 48t-42.5 71t-15 86.5t15 86.5t42.5 70.5t66 47.5
t85.5 17.5t85.5 -17.5t65.5 -47.5t42 -70.5t15 -86.5z" />
    <glyph glyph-name="Oslash" unicode="&#xd8;" 
d="M723 333q0 92 -42 167t-112 122l46 83q5 9 1.5 19.5t-12.5 15.5t-19 2t-15 -12l-45 -83q-67 31 -143 31q-72 0 -134.5 -27t-108.5 -73.5t-72.5 -109.5t-26.5 -135q0 -92 42 -167.5t112 -122.5l-45 -83q-5 -9 -2 -19t12 -15t19 -2t15 12l46 82q67 -31 143 -31
q72 0 134.5 27t108 74t72 110t26.5 135zM590 333q0 -46 -15 -86.5t-42 -71t-65.5 -48t-85.5 -17.5q-45 0 -84 17l211 385q38 -31 59.5 -77t21.5 -102zM465 539l-211 -386q-38 31 -59.5 77.5t-21.5 102.5q0 46 15 86.5t42.5 70.5t66 47.5t85.5 17.5t83 -16z" />
    <glyph glyph-name="Ugrave" unicode="&#xd9;" horiz-adv-x="759" 
d="M421 758q0 24 -19 37l-117 80q-13 8 -26 8q-19 0 -32.5 -13t-13.5 -32q0 -25 20 -38l118 -80q10 -7 25 -7q19 0 32 13t13 32zM669 272v336q0 28 -19.5 47.5t-47.5 19.5t-47.5 -19.5t-19.5 -47.5v-353q0 -66 -40.5 -106.5t-115.5 -40.5t-115.5 40.5t-40.5 106.5v353
q0 28 -19.5 47.5t-47.5 19.5t-47 -19.5t-19 -47.5v-336q0 -65 21 -117.5t59 -90t91 -57.5t118 -20t118.5 20t91.5 57.5t59 90t21 117.5z" />
    <glyph glyph-name="Uacute" unicode="&#xda;" horiz-adv-x="759" 
d="M541 838q0 19 -13.5 32t-32.5 13q-13 0 -26 -8l-117 -80q-19 -13 -19 -37q0 -19 13 -32t32 -13q15 0 25 7l118 80q20 13 20 38zM669 272v336q0 28 -19.5 47.5t-47.5 19.5t-47.5 -19.5t-19.5 -47.5v-353q0 -66 -40.5 -106.5t-115.5 -40.5t-115.5 40.5t-40.5 106.5v353
q0 28 -19.5 47.5t-47.5 19.5t-47 -19.5t-19 -47.5v-336q0 -65 21 -117.5t59 -90t91 -57.5t118 -20t118.5 20t91.5 57.5t59 90t21 117.5z" />
    <glyph glyph-name="Ucircumflex" unicode="&#xdb;" horiz-adv-x="759" 
d="M521 754q0 22 -18 33l-100 62q-11 8 -24 8t-20 -5l-103 -65q-18 -11 -18 -31q0 -12 6 -22q5 -9 14 -13.5t19 -4.5q11 0 20 6l82 52l83 -52q10 -6 22 -6q20 0 31 18q6 9 6 20zM669 272v336q0 28 -19.5 47.5t-47.5 19.5t-47.5 -19.5t-19.5 -47.5v-353q0 -66 -40.5 -106.5
t-115.5 -40.5t-115.5 40.5t-40.5 106.5v353q0 28 -19.5 47.5t-47.5 19.5t-47 -19.5t-19 -47.5v-336q0 -65 21 -117.5t59 -90t91 -57.5t118 -20t118.5 20t91.5 57.5t59 90t21 117.5z" />
    <glyph glyph-name="Udieresis" unicode="&#xdc;" horiz-adv-x="759" 
d="M521 778q0 24 -16.5 40.5t-40.5 16.5t-40.5 -16.5t-16.5 -40.5t16.5 -40.5t40.5 -16.5t40.5 16.5t16.5 40.5zM352 778q0 24 -16.5 40.5t-40.5 16.5t-40.5 -16.5t-16.5 -40.5t17 -40.5t40 -16.5q24 0 40.5 16.5t16.5 40.5zM669 272v336q0 28 -19.5 47.5t-47.5 19.5
t-47.5 -19.5t-19.5 -47.5v-353q0 -66 -40.5 -106.5t-115.5 -40.5t-115.5 40.5t-40.5 106.5v353q0 28 -19.5 47.5t-47.5 19.5t-47 -19.5t-19 -47.5v-336q0 -65 21 -117.5t59 -90t91 -57.5t118 -20t118.5 20t91.5 57.5t59 90t21 117.5z" />
    <glyph glyph-name="germandbls" unicode="&#xdf;" horiz-adv-x="670" 
d="M615 187q0 57 -31 102t-93 64q41 20 64.5 53.5t23.5 84.5q0 37 -16 70.5t-47 59.5t-76.5 41.5t-103.5 15.5q-55 0 -99.5 -18t-76 -50t-48.5 -77t-17 -99v-375q0 -28 19 -47.5t47 -19.5t47.5 19.5t19.5 47.5v380q0 55 26.5 87.5t81.5 32.5q57 0 83.5 -25t26.5 -60
q0 -26 -17 -45.5t-53 -19.5h-48q-25 0 -43 -17.5t-18 -42.5t18 -42.5t43 -17.5h62q24 0 41.5 -7.5t29 -19.5t16.5 -27t5 -30t-5 -30t-16.5 -27.5t-29 -20t-41.5 -7.5h-61q-26 0 -44 -17.5t-18 -43.5t18 -44t44 -18h43q58 0 103 15t76 40.5t47.5 60t16.5 74.5z" />
    <glyph glyph-name="agrave" unicode="&#xe0;" horiz-adv-x="509" 
d="M454 53v214q0 51 -16 85t-44 55t-67 30t-85 9q-18 0 -48.5 -2.5t-60 -10.5t-51 -23t-21.5 -39q0 -21 14.5 -36t36.5 -15q10 0 23 3.5t28 7.5t32.5 7.5t35.5 3.5q31 0 51 -4t31 -15t15.5 -30t4.5 -49q-26 22 -58.5 30t-64.5 8q-33 0 -62 -9.5t-51 -28.5t-34.5 -46
t-12.5 -62q0 -32 13 -59t34.5 -46.5t49.5 -31t59 -11.5q18 0 37.5 3.5t37.5 11.5t32.5 20.5t23.5 29.5q0 -24 15.5 -42.5t40.5 -18.5t43 18t18 43zM333 136q0 -16 -9 -27t-22 -17.5t-28 -9t-28 -2.5t-26.5 3t-25 9.5t-18.5 17t-7 26.5t7 26.5t18.5 16.5t25 8.5t26.5 2.5
t28.5 -2t28.5 -8t21.5 -16.5t8.5 -27.5zM290 539q0 24 -19 37l-117 80q-13 8 -26 8q-19 0 -32.5 -13t-13.5 -32q0 -25 20 -38l118 -80q10 -7 25 -7q19 0 32 13t13 32z" />
    <glyph glyph-name="aacute" unicode="&#xe1;" horiz-adv-x="509" 
d="M454 53v214q0 51 -16 85t-44 55t-67 30t-85 9q-18 0 -48.5 -2.5t-60 -10.5t-51 -23t-21.5 -39q0 -21 14.5 -36t36.5 -15q10 0 23 3.5t28 7.5t32.5 7.5t35.5 3.5q31 0 51 -4t31 -15t15.5 -30t4.5 -49q-26 22 -58.5 30t-64.5 8q-33 0 -62 -9.5t-51 -28.5t-34.5 -46
t-12.5 -62q0 -32 13 -59t34.5 -46.5t49.5 -31t59 -11.5q18 0 37.5 3.5t37.5 11.5t32.5 20.5t23.5 29.5q0 -24 15.5 -42.5t40.5 -18.5t43 18t18 43zM333 136q0 -16 -9 -27t-22 -17.5t-28 -9t-28 -2.5t-26.5 3t-25 9.5t-18.5 17t-7 26.5t7 26.5t18.5 16.5t25 8.5t26.5 2.5
t28.5 -2t28.5 -8t21.5 -16.5t8.5 -27.5zM397 619q0 19 -13.5 32t-32.5 13q-13 0 -26 -8l-117 -80q-19 -13 -19 -37q0 -19 13 -32t32 -13q15 0 25 7l118 80q20 13 20 38z" />
    <glyph glyph-name="acircumflex" unicode="&#xe2;" horiz-adv-x="509" 
d="M454 53v214q0 51 -16 85t-44 55t-67 30t-85 9q-18 0 -48.5 -2.5t-60 -10.5t-51 -23t-21.5 -39q0 -21 14.5 -36t36.5 -15q10 0 23 3.5t28 7.5t32.5 7.5t35.5 3.5q31 0 51 -4t31 -15t15.5 -30t4.5 -49q-26 22 -58.5 30t-64.5 8q-33 0 -62 -9.5t-51 -28.5t-34.5 -46
t-12.5 -62q0 -32 13 -59t34.5 -46.5t49.5 -31t59 -11.5q18 0 37.5 3.5t37.5 11.5t32.5 20.5t23.5 29.5q0 -24 15.5 -42.5t40.5 -18.5t43 18t18 43zM333 136q0 -16 -9 -27t-22 -17.5t-28 -9t-28 -2.5t-26.5 3t-25 9.5t-18.5 17t-7 26.5t7 26.5t18.5 16.5t25 8.5t26.5 2.5
t28.5 -2t28.5 -8t21.5 -16.5t8.5 -27.5zM398 528q0 22 -18 33l-100 62q-11 8 -24 8t-20 -5l-103 -65q-18 -11 -18 -31q0 -12 6 -22q5 -9 14 -13.5t19 -4.5q11 0 20 6l82 52l83 -52q10 -6 22 -6q20 0 31 18q6 9 6 20z" />
    <glyph glyph-name="atilde" unicode="&#xe3;" horiz-adv-x="509" 
d="M454 53v214q0 51 -16 85t-44 55t-67 30t-85 9q-18 0 -48.5 -2.5t-60 -10.5t-51 -23t-21.5 -39q0 -21 14.5 -36t36.5 -15q10 0 23 3.5t28 7.5t32.5 7.5t35.5 3.5q31 0 51 -4t31 -15t15.5 -30t4.5 -49q-26 22 -58.5 30t-64.5 8q-33 0 -62 -9.5t-51 -28.5t-34.5 -46
t-12.5 -62q0 -32 13 -59t34.5 -46.5t49.5 -31t59 -11.5q18 0 37.5 3.5t37.5 11.5t32.5 20.5t23.5 29.5q0 -24 15.5 -42.5t40.5 -18.5t43 18t18 43zM333 136q0 -16 -9 -27t-22 -17.5t-28 -9t-28 -2.5t-26.5 3t-25 9.5t-18.5 17t-7 26.5t7 26.5t18.5 16.5t25 8.5t26.5 2.5
t28.5 -2t28.5 -8t21.5 -16.5t8.5 -27.5zM396 569q0 14 -11 24.5t-25 10.5q-8 0 -14.5 -3t-12.5 -7t-12.5 -7t-15.5 -3q-12 0 -23.5 3.5t-23 8t-23 8t-24.5 3.5q-12 0 -29.5 -5t-33.5 -14t-27 -21.5t-11 -27.5t11 -25t26 -10q10 0 16 4t12 8.5t14 8.5t22 4q12 0 23.5 -3.5
t23 -7.5t23 -7.5t23.5 -3.5t28 4t30 12t24 19.5t10 26.5z" />
    <glyph glyph-name="adieresis" unicode="&#xe4;" horiz-adv-x="509" 
d="M454 53v214q0 51 -16 85t-44 55t-67 30t-85 9q-18 0 -48.5 -2.5t-60 -10.5t-51 -23t-21.5 -39q0 -21 14.5 -36t36.5 -15q10 0 23 3.5t28 7.5t32.5 7.5t35.5 3.5q31 0 51 -4t31 -15t15.5 -30t4.5 -49q-26 22 -58.5 30t-64.5 8q-33 0 -62 -9.5t-51 -28.5t-34.5 -46
t-12.5 -62q0 -32 13 -59t34.5 -46.5t49.5 -31t59 -11.5q18 0 37.5 3.5t37.5 11.5t32.5 20.5t23.5 29.5q0 -24 15.5 -42.5t40.5 -18.5t43 18t18 43zM333 136q0 -16 -9 -27t-22 -17.5t-28 -9t-28 -2.5t-26.5 3t-25 9.5t-18.5 17t-7 26.5t7 26.5t18.5 16.5t25 8.5t26.5 2.5
t28.5 -2t28.5 -8t21.5 -16.5t8.5 -27.5zM399 555q0 24 -16.5 40.5t-40.5 16.5t-40.5 -16.5t-16.5 -40.5t16.5 -40.5t40.5 -16.5t40.5 16.5t16.5 40.5zM230 555q0 24 -16.5 40.5t-40.5 16.5t-40.5 -16.5t-16.5 -40.5t17 -40.5t40 -16.5q24 0 40.5 16.5t16.5 40.5z" />
    <glyph glyph-name="aring" unicode="&#xe5;" horiz-adv-x="509" 
d="M454 53v214q0 51 -16 85t-44 55t-67 30t-85 9q-18 0 -48.5 -2.5t-60 -10.5t-51 -23t-21.5 -39q0 -21 14.5 -36t36.5 -15q10 0 23 3.5t28 7.5t32.5 7.5t35.5 3.5q31 0 51 -4t31 -15t15.5 -30t4.5 -49q-26 22 -58.5 30t-64.5 8q-33 0 -62 -9.5t-51 -28.5t-34.5 -46
t-12.5 -62q0 -32 13 -59t34.5 -46.5t49.5 -31t59 -11.5q18 0 37.5 3.5t37.5 11.5t32.5 20.5t23.5 29.5q0 -24 15.5 -42.5t40.5 -18.5t43 18t18 43zM333 136q0 -16 -9 -27t-22 -17.5t-28 -9t-28 -2.5t-26.5 3t-25 9.5t-18.5 17t-7 26.5t7 26.5t18.5 16.5t25 8.5t26.5 2.5
t28.5 -2t28.5 -8t21.5 -16.5t8.5 -27.5zM347 571q0 39 -27 66t-66 27q-19 0 -36 -7t-30 -20t-20.5 -30t-7.5 -36q0 -20 7.5 -37t20 -29.5t29.5 -20t37 -7.5q19 0 36 7.5t30 20.5t20 30t7 36zM296 571q0 -18 -11 -30.5t-31 -12.5t-31 12.5t-11 30.5t11.5 30t30.5 12t30.5 -12
t11.5 -30z" />
    <glyph glyph-name="ae" unicode="&#xe6;" horiz-adv-x="815" 
d="M775 217q0 48 -16 90t-45 72.5t-69.5 48.5t-89.5 18q-40 0 -77.5 -13.5t-67.5 -39.5q-16 16 -36 26.5t-42 16.5t-45 8t-45 2q-18 0 -48 -2.5t-59.5 -10.5t-51 -23t-21.5 -39q0 -21 14.5 -36t35.5 -15q10 0 23 3.5t28 7.5t32.5 7.5t35.5 3.5q21 0 39.5 -2.5t32.5 -10.5
t22 -23t8 -39v-23q-25 22 -57.5 30t-64.5 8q-33 0 -62.5 -9.5t-51 -28.5t-34.5 -46t-13 -62q0 -40 17.5 -68t45.5 -46t62.5 -26t68.5 -8q45 0 85 15t70 48q32 -30 72.5 -46.5t84.5 -16.5q48 0 97 14t83 51q14 16 14 33q0 21 -15.5 37t-36.5 16q-16 0 -28 -7.5t-25.5 -17
t-33 -17t-50.5 -7.5q-41 0 -72 22.5t-36 64.5h279q17 0 30 11.5t13 28.5zM656 263h-201q8 38 34.5 59.5t65.5 21.5q38 0 65.5 -22t35.5 -59zM333 136q0 -16 -9 -27t-22 -17.5t-28 -9t-28 -2.5t-26.5 3t-25 9.5t-18.5 17t-7 26.5t7 26.5t18.5 16.5t25 8.5t26.5 2.5t28.5 -2
t28.5 -8t21.5 -16.5t8.5 -27.5z" />
    <glyph glyph-name="ccedilla" unicode="&#xe7;" horiz-adv-x="495" 
d="M436 86q0 18 -12 33q-15 17 -37 17q-21 0 -37 -12q-13 -9 -33.5 -19.5t-52.5 -10.5q-26 0 -46 10t-34 26.5t-21.5 39t-7.5 47.5t7.5 47.5t21.5 39t34 26.5t46 10q23 0 41 -5.5t35 -15.5q16 -9 34 -9q27 0 44 21q10 13 10 28q0 24 -22 43q-27 23 -64 33.5t-78 10.5
q-47 0 -89 -18t-73 -49t-49 -73t-18 -89t18 -89t49 -73t73 -49t89 -18q22 0 45 4.5t44 12t38 18t28 22.5q17 19 17 41zM416 -125q0 21 -9 36.5t-24 25.5t-33.5 14.5t-37.5 4.5q-25 0 -49 -6l16 50h-46q-2 -4 -5.5 -14.5t-8 -22.5t-7.5 -23t-3 -16q0 -11 7 -16.5t17 -5.5
q12 0 23.5 3t23.5 3q9 0 19 -1t19 -4.5t14.5 -10t5.5 -18.5q0 -23 -18 -32t-38 -9q-19 0 -37.5 4.5t-32.5 4.5q-12 0 -18.5 -9t-6.5 -20q0 -14 11 -22t26.5 -12t32 -4.5t26.5 -0.5q23 0 46.5 6t43 18t31.5 31t12 46z" />
    <glyph glyph-name="egrave" unicode="&#xe8;" horiz-adv-x="521" 
d="M482 217q0 50 -16.5 92t-46 72.5t-70 47.5t-87.5 17t-88.5 -18t-72.5 -49t-48.5 -73t-17.5 -89t18 -89t49 -73t72.5 -49t88.5 -18t94.5 15t85.5 50q15 13 15 31q0 24 -19 41q-16 14 -34 14q-21 0 -43 -17q-17 -14 -39.5 -23t-54.5 -9q-45 0 -74 24.5t-34 63.5h279
q17 0 30 11t13 28zM363 263h-201q8 38 34 59.5t66 21.5t66.5 -23t34.5 -58zM308 539q0 24 -19 37l-117 80q-13 8 -26 8q-19 0 -32.5 -13t-13.5 -32q0 -25 20 -38l118 -80q10 -7 25 -7q19 0 32 13t13 32z" />
    <glyph glyph-name="eacute" unicode="&#xe9;" horiz-adv-x="521" 
d="M482 217q0 50 -16.5 92t-46 72.5t-70 47.5t-87.5 17t-88.5 -18t-72.5 -49t-48.5 -73t-17.5 -89t18 -89t49 -73t72.5 -49t88.5 -18t94.5 15t85.5 50q15 13 15 31q0 24 -19 41q-16 14 -34 14q-21 0 -43 -17q-17 -14 -39.5 -23t-54.5 -9q-45 0 -74 24.5t-34 63.5h279
q17 0 30 11t13 28zM363 263h-201q8 38 34 59.5t66 21.5t66.5 -23t34.5 -58zM426 619q0 19 -13.5 32t-32.5 13q-13 0 -26 -8l-117 -80q-19 -13 -19 -37q0 -19 13 -32t32 -13q15 0 25 7l118 80q20 13 20 38z" />
    <glyph glyph-name="ecircumflex" unicode="&#xea;" horiz-adv-x="521" 
d="M482 217q0 50 -16.5 92t-46 72.5t-70 47.5t-87.5 17t-88.5 -18t-72.5 -49t-48.5 -73t-17.5 -89t18 -89t49 -73t72.5 -49t88.5 -18t94.5 15t85.5 50q15 13 15 31q0 24 -19 41q-16 14 -34 14q-21 0 -43 -17q-17 -14 -39.5 -23t-54.5 -9q-45 0 -74 24.5t-34 63.5h279
q17 0 30 11t13 28zM363 263h-201q8 38 34 59.5t66 21.5t66.5 -23t34.5 -58zM409 528q0 22 -18 33l-100 62q-11 8 -24 8t-20 -5l-103 -65q-18 -11 -18 -31q0 -12 6 -22q5 -9 14 -13.5t19 -4.5q11 0 20 6l82 52l83 -52q10 -6 22 -6q20 0 31 18q6 9 6 20z" />
    <glyph glyph-name="edieresis" unicode="&#xeb;" horiz-adv-x="521" 
d="M482 217q0 50 -16.5 92t-46 72.5t-70 47.5t-87.5 17t-88.5 -18t-72.5 -49t-48.5 -73t-17.5 -89t18 -89t49 -73t72.5 -49t88.5 -18t94.5 15t85.5 50q15 13 15 31q0 24 -19 41q-16 14 -34 14q-21 0 -43 -17q-17 -14 -39.5 -23t-54.5 -9q-45 0 -74 24.5t-34 63.5h279
q17 0 30 11t13 28zM363 263h-201q8 38 34 59.5t66 21.5t66.5 -23t34.5 -58zM409 555q0 24 -16.5 40.5t-40.5 16.5t-40.5 -16.5t-16.5 -40.5t16.5 -40.5t40.5 -16.5t40.5 16.5t16.5 40.5zM240 555q0 24 -16.5 40.5t-40.5 16.5t-40.5 -16.5t-16.5 -40.5t17 -40.5t40 -16.5
q24 0 40.5 16.5t16.5 40.5z" />
    <glyph glyph-name="igrave" unicode="&#xec;" horiz-adv-x="283" 
d="M202 52v329q0 25 -18 43t-43 18t-42.5 -18t-17.5 -43v-329q0 -25 17.5 -42.5t42.5 -17.5t43 17.5t18 42.5zM289 539q0 24 -19 37l-117 80q-13 8 -26 8q-19 0 -32.5 -13t-13.5 -32q0 -25 20 -38l118 -80q10 -7 25 -7q19 0 32 13t13 32z" />
    <glyph glyph-name="iacute" unicode="&#xed;" horiz-adv-x="283" 
d="M202 52v329q0 25 -18 43t-43 18t-42.5 -18t-17.5 -43v-329q0 -25 17.5 -42.5t42.5 -17.5t43 17.5t18 42.5zM297 619q0 19 -13.5 32t-32.5 13q-13 0 -26 -8l-117 -80q-19 -13 -19 -37q0 -19 13 -32t32 -13q15 0 25 7l118 80q20 13 20 38z" />
    <glyph glyph-name="icircumflex" unicode="&#xee;" horiz-adv-x="283" 
d="M202 52v329q0 25 -18 43t-43 18t-42.5 -18t-17.5 -43v-329q0 -25 17.5 -42.5t42.5 -17.5t43 17.5t18 42.5zM364 528q0 22 -18 33l-100 62q-11 8 -24 8t-20 -5l-103 -65q-18 -11 -18 -31q0 -12 6 -22q5 -9 14 -13.5t19 -4.5q11 0 20 6l82 52l83 -52q10 -6 22 -6
q20 0 31 18q6 9 6 20z" />
    <glyph glyph-name="idieresis" unicode="&#xef;" horiz-adv-x="283" 
d="M202 52v329q0 25 -18 43t-43 18t-42.5 -18t-17.5 -43v-329q0 -25 17.5 -42.5t42.5 -17.5t43 17.5t18 42.5zM364 555q0 24 -16.5 40.5t-40.5 16.5t-40.5 -16.5t-16.5 -40.5t16.5 -40.5t40.5 -16.5t40.5 16.5t16.5 40.5zM195 555q0 24 -16.5 40.5t-40.5 16.5t-40.5 -16.5
t-16.5 -40.5t17 -40.5t40 -16.5q24 0 40.5 16.5t16.5 40.5z" />
    <glyph glyph-name="ntilde" unicode="&#xf1;" horiz-adv-x="572" 
d="M502 52v188q0 45 -12 83t-34.5 65t-55.5 42.5t-75 15.5q-40 0 -74 -18.5t-56 -46.5q0 25 -17 43t-42 18t-43 -18t-18 -43v-329q0 -25 18 -42.5t43 -17.5t42.5 17.5t17.5 42.5v182q0 20 5.5 38.5t16.5 33t29 23.5t43 9q47 0 69 -30t22 -74v-182q0 -25 18 -42.5t43 -17.5
t42.5 17.5t17.5 42.5zM428 569q0 14 -11 24.5t-25 10.5q-8 0 -14.5 -3t-12.5 -7t-12.5 -7t-15.5 -3q-12 0 -23.5 3.5t-23 8t-23 8t-24.5 3.5q-12 0 -29.5 -5t-33.5 -14t-27 -21.5t-11 -27.5t11 -25t26 -10q10 0 16 4t12 8.5t14 8.5t22 4q12 0 23.5 -3.5t23 -7.5t23 -7.5
t23.5 -3.5t28 4t30 12t24 19.5t10 26.5z" />
    <glyph glyph-name="ograve" unicode="&#xf2;" horiz-adv-x="528" 
d="M493 217q0 47 -18 89t-49 73t-73 49t-89 18t-89 -18t-73 -49t-49 -73t-18 -89t18 -89t49 -73t73 -49t89 -18t89 18t73 49t49 73t18 89zM373 217q0 -25 -7.5 -47t-21.5 -38.5t-34 -26t-46 -9.5t-46 9.5t-34 26t-21 38.5t-7 47t7 47t21 38.5t34 26t46 9.5t46 -9.5t34 -26
t21.5 -38.5t7.5 -47zM290 539q0 24 -19 37l-117 80q-13 8 -26 8q-19 0 -32.5 -13t-13.5 -32q0 -25 20 -38l118 -80q10 -7 25 -7q19 0 32 13t13 32z" />
    <glyph glyph-name="oacute" unicode="&#xf3;" horiz-adv-x="528" 
d="M493 217q0 47 -18 89t-49 73t-73 49t-89 18t-89 -18t-73 -49t-49 -73t-18 -89t18 -89t49 -73t73 -49t89 -18t89 18t73 49t49 73t18 89zM373 217q0 -25 -7.5 -47t-21.5 -38.5t-34 -26t-46 -9.5t-46 9.5t-34 26t-21 38.5t-7 47t7 47t21 38.5t34 26t46 9.5t46 -9.5t34 -26
t21.5 -38.5t7.5 -47zM428 619q0 19 -13.5 32t-32.5 13q-13 0 -26 -8l-117 -80q-19 -13 -19 -37q0 -19 13 -32t32 -13q15 0 25 7l118 80q20 13 20 38z" />
    <glyph glyph-name="ocircumflex" unicode="&#xf4;" horiz-adv-x="528" 
d="M493 217q0 47 -18 89t-49 73t-73 49t-89 18t-89 -18t-73 -49t-49 -73t-18 -89t18 -89t49 -73t73 -49t89 -18t89 18t73 49t49 73t18 89zM373 217q0 -25 -7.5 -47t-21.5 -38.5t-34 -26t-46 -9.5t-46 9.5t-34 26t-21 38.5t-7 47t7 47t21 38.5t34 26t46 9.5t46 -9.5t34 -26
t21.5 -38.5t7.5 -47zM405 528q0 22 -18 33l-100 62q-11 8 -24 8t-20 -5l-103 -65q-18 -11 -18 -31q0 -12 6 -22q5 -9 14 -13.5t19 -4.5q11 0 20 6l82 52l83 -52q10 -6 22 -6q20 0 31 18q6 9 6 20z" />
    <glyph glyph-name="otilde" unicode="&#xf5;" horiz-adv-x="528" 
d="M493 217q0 47 -18 89t-49 73t-73 49t-89 18t-89 -18t-73 -49t-49 -73t-18 -89t18 -89t49 -73t73 -49t89 -18t89 18t73 49t49 73t18 89zM373 217q0 -25 -7.5 -47t-21.5 -38.5t-34 -26t-46 -9.5t-46 9.5t-34 26t-21 38.5t-7 47t7 47t21 38.5t34 26t46 9.5t46 -9.5t34 -26
t21.5 -38.5t7.5 -47zM407 569q0 14 -11 24.5t-25 10.5q-8 0 -14.5 -3t-12.5 -7t-12.5 -7t-15.5 -3q-12 0 -23.5 3.5t-23 8t-23 8t-24.5 3.5q-12 0 -29.5 -5t-33.5 -14t-27 -21.5t-11 -27.5t11 -25t26 -10q10 0 16 4t12 8.5t14 8.5t22 4q12 0 23.5 -3.5t23 -7.5t23 -7.5
t23.5 -3.5t28 4t30 12t24 19.5t10 26.5z" />
    <glyph glyph-name="odieresis" unicode="&#xf6;" horiz-adv-x="528" 
d="M493 217q0 47 -18 89t-49 73t-73 49t-89 18t-89 -18t-73 -49t-49 -73t-18 -89t18 -89t49 -73t73 -49t89 -18t89 18t73 49t49 73t18 89zM373 217q0 -25 -7.5 -47t-21.5 -38.5t-34 -26t-46 -9.5t-46 9.5t-34 26t-21 38.5t-7 47t7 47t21 38.5t34 26t46 9.5t46 -9.5t34 -26
t21.5 -38.5t7.5 -47zM407 555q0 24 -16.5 40.5t-40.5 16.5t-40.5 -16.5t-16.5 -40.5t16.5 -40.5t40.5 -16.5t40.5 16.5t16.5 40.5zM238 555q0 24 -16.5 40.5t-40.5 16.5t-40.5 -16.5t-16.5 -40.5t17 -40.5t40 -16.5q24 0 40.5 16.5t16.5 40.5z" />
    <glyph glyph-name="divide" unicode="&#xf7;" horiz-adv-x="505" 
d="M305 333q0 22 -15 37t-37 15t-37.5 -15t-15.5 -37t15.5 -37t37.5 -15t37 15t15 37zM460 189q0 14 -10 24t-24 10h-347q-14 0 -24 -10t-10 -24t10 -24.5t24 -10.5h347q14 0 24 10.5t10 24.5zM305 44q0 22 -15 37t-37 15t-37.5 -15t-15.5 -37t15.5 -37t37.5 -15t37 15
t15 37z" />
    <glyph glyph-name="oslash" unicode="&#xf8;" horiz-adv-x="528" 
d="M493 217q0 60 -27 109.5t-73 80.5l38 70q5 8 2 16.5t-11 13.5t-16.5 2t-13.5 -11l-38 -70q-42 18 -90 18q-47 0 -89 -18t-73 -49t-49 -73t-18 -89q0 -60 27 -109t73 -80l-38 -71q-5 -8 -2 -16.5t11 -13.5t16.5 -2t13.5 11l38 70q42 -18 90 -18q47 0 89 18t73 49t49 73
t18 89zM372 217q0 -25 -7 -47t-21 -38.5t-34 -26t-46 -9.5q-21 0 -37 6l112 206q17 -17 25 -40.5t8 -50.5zM301 332l-112 -206q-17 17 -25 40.5t-8 50.5q0 25 7 47t21 38.5t34 26t46 9.5q20 0 37 -6z" />
    <glyph glyph-name="ugrave" unicode="&#xf9;" horiz-adv-x="572" 
d="M497 53v328q0 25 -17.5 43t-42.5 18t-43 -18t-18 -43v-181q0 -20 -5.5 -38.5t-17 -33t-29.5 -23.5t-43 -9q-47 0 -68.5 30t-21.5 74v181q0 25 -17.5 43t-42.5 18t-43 -18t-18 -43v-187q0 -45 12 -83t34.5 -65t55.5 -42.5t75 -15.5q40 0 74.5 18.5t56.5 46.5q0 -25 17 -43
t42 -18t42.5 18t17.5 43zM323 539q0 24 -19 37l-117 80q-13 8 -26 8q-19 0 -32.5 -13t-13.5 -32q0 -25 20 -38l118 -80q10 -7 25 -7q19 0 32 13t13 32z" />
    <glyph glyph-name="uacute" unicode="&#xfa;" horiz-adv-x="572" 
d="M497 53v328q0 25 -17.5 43t-42.5 18t-43 -18t-18 -43v-181q0 -20 -5.5 -38.5t-17 -33t-29.5 -23.5t-43 -9q-47 0 -68.5 30t-21.5 74v181q0 25 -17.5 43t-42.5 18t-43 -18t-18 -43v-187q0 -45 12 -83t34.5 -65t55.5 -42.5t75 -15.5q40 0 74.5 18.5t56.5 46.5q0 -25 17 -43
t42 -18t42.5 18t17.5 43zM459 619q0 19 -13.5 32t-32.5 13q-13 0 -26 -8l-117 -80q-19 -13 -19 -37q0 -19 13 -32t32 -13q15 0 25 7l118 80q20 13 20 38z" />
    <glyph glyph-name="ucircumflex" unicode="&#xfb;" horiz-adv-x="572" 
d="M497 53v328q0 25 -17.5 43t-42.5 18t-43 -18t-18 -43v-181q0 -20 -5.5 -38.5t-17 -33t-29.5 -23.5t-43 -9q-47 0 -68.5 30t-21.5 74v181q0 25 -17.5 43t-42.5 18t-43 -18t-18 -43v-187q0 -45 12 -83t34.5 -65t55.5 -42.5t75 -15.5q40 0 74.5 18.5t56.5 46.5q0 -25 17 -43
t42 -18t42.5 18t17.5 43zM423 528q0 22 -18 33l-100 62q-11 8 -24 8t-20 -5l-103 -65q-18 -11 -18 -31q0 -12 6 -22q5 -9 14 -13.5t19 -4.5q11 0 20 6l82 52l83 -52q10 -6 22 -6q20 0 31 18q6 9 6 20z" />
    <glyph glyph-name="udieresis" unicode="&#xfc;" horiz-adv-x="572" 
d="M497 53v328q0 25 -17.5 43t-42.5 18t-43 -18t-18 -43v-181q0 -20 -5.5 -38.5t-17 -33t-29.5 -23.5t-43 -9q-47 0 -68.5 30t-21.5 74v181q0 25 -17.5 43t-42.5 18t-43 -18t-18 -43v-187q0 -45 12 -83t34.5 -65t55.5 -42.5t75 -15.5q40 0 74.5 18.5t56.5 46.5q0 -25 17 -43
t42 -18t42.5 18t17.5 43zM419 555q0 24 -16.5 40.5t-40.5 16.5t-40.5 -16.5t-16.5 -40.5t16.5 -40.5t40.5 -16.5t40.5 16.5t16.5 40.5zM250 555q0 24 -16.5 40.5t-40.5 16.5t-40.5 -16.5t-16.5 -40.5t17 -40.5t40 -16.5q24 0 40.5 16.5t16.5 40.5z" />
    <glyph glyph-name="ydieresis" unicode="&#xff;" horiz-adv-x="472" 
d="M452 388q0 23 -15 38.5t-38 15.5q-16 0 -29.5 -9t-20.5 -23l-106 -233l-107 233q-7 14 -20.5 23t-29.5 9q-23 0 -38.5 -15.5t-15.5 -38.5q0 -7 9.5 -32t24.5 -59t33 -73.5t34.5 -75t29.5 -63t18 -38.5q-23 -49 -59 -84.5t-84 -60.5q-14 -7 -23.5 -18t-9.5 -28
q0 -20 15 -36t35 -16q12 0 20 4q77 32 131 89t88 132l153 336q5 12 5 23zM387 555q0 24 -16.5 40.5t-40.5 16.5t-40.5 -16.5t-16.5 -40.5t16.5 -40.5t40.5 -16.5t40.5 16.5t16.5 40.5zM218 555q0 24 -16.5 40.5t-40.5 16.5t-40.5 -16.5t-16.5 -40.5t17 -40.5t40 -16.5
q24 0 40.5 16.5t16.5 40.5z" />
    <glyph glyph-name="notequal" unicode="&#x2260;" horiz-adv-x="529" 
d="M444 158q0 20 -13.5 33.5t-33.5 13.5h-131l37 76h94q20 0 33.5 13.5t13.5 33.5t-13.5 33.5t-33.5 13.5h-49l30 62q7 16 -8 23q-16 7 -23 -8l-38 -77h-177q-20 0 -33.5 -13.5t-13.5 -33.5t13.5 -33.5t33.5 -13.5h132l-38 -76h-94q-20 0 -33.5 -13.5t-13.5 -33.5
t13.5 -33.5t33.5 -13.5h49l-30 -62q-3 -7 -1 -14t9 -10t14 -1t10 9l37 78h177q20 0 33.5 13.5t13.5 33.5z" />
    <glyph glyph-name="infinity" unicode="&#x221e;" horiz-adv-x="922" 
d="M822 315q0 17 -12 29t-29 12h-538l179 177q12 12 12 30t-12 30t-30 12t-30 -12l-250 -248q-12 -12 -12 -30t12 -30l250 -248q12 -12 30 -12t30 12t12 30t-12 30l-179 177h538q17 0 29 12t12 29z" />
    <glyph glyph-name="lessequal" unicode="&#x2264;" horiz-adv-x="922" 
d="M822 315q0 17 -12 29t-29 12h-538l179 177q12 12 12 30t-12 30t-30 12t-30 -12l-250 -248q-12 -12 -12 -30t12 -30l250 -248q12 -12 30 -12t30 12t12 30t-12 30l-179 177h538q17 0 29 12t12 29z" />
    <glyph glyph-name="greaterequal" unicode="&#x2265;" horiz-adv-x="922" 
d="M822 315q0 18 -12 30l-250 248q-12 12 -30 12t-30 -12t-12 -30t12 -30l179 -177h-538q-17 0 -29 -12t-12 -29t12 -29t29 -12h538l-179 -177q-12 -12 -12 -30t12 -30t30 -12t30 12l250 248q12 12 12 30z" />
    <glyph glyph-name="partialdiff" unicode="&#x2202;" horiz-adv-x="781" 
d="M431 634q0 17 -11.5 29t-28.5 12t-29 -12t-12 -29v-504l-178 179q-12 12 -30 12q-17 0 -29 -12q-13 -13 -13 -30t13 -30l248 -250q12 -12 30 -12q17 0 29 12l248 250q13 13 13 31q0 16 -13 29q-12 12 -29 12q-18 0 -30 -12l-178 -179v504z" />
    <glyph glyph-name="summation" unicode="&#x2211;" horiz-adv-x="755" 
d="M643 465q12 12 12 29t-12 29t-29 12t-29 -12l-380 -380v252q0 18 -12 30q-14 12 -31 12t-30 -13q-12 -12 -12 -29v-352q0 -18 12 -30q13 -13 30 -13h352q18 0 30 12q12 14 12 30q0 18 -12 30t-30 12l-252 1z" />
    <glyph glyph-name="product" unicode="&#x220f;" horiz-adv-x="755" 
d="M643 465q12 12 12 29t-12 29t-29 12t-29 -12l-380 -380v252q0 18 -12 30q-14 12 -31 12t-30 -13q-12 -12 -12 -29v-352q0 -18 12 -30q13 -13 30 -13h352q18 0 30 12q12 14 12 30q0 18 -12 30t-30 12l-252 1z" />
    <glyph glyph-name="pi" unicode="&#x3c0;" horiz-adv-x="755" 
d="M635 43v352q0 17 -12 29q-13 13 -30 13t-31 -12q-12 -12 -12 -30v-252l-380 380q-12 12 -29 12t-29 -12t-12 -29t12 -29l381 -380l-252 -1q-18 0 -30 -12t-12 -30q0 -16 12 -30q12 -12 30 -12h352q17 0 30 13q12 12 12 30z" />
    <glyph glyph-name="integral" unicode="&#x222b;" horiz-adv-x="755" 
d="M635 43v352q0 17 -12 29q-13 13 -30 13t-31 -12q-12 -12 -12 -30v-252l-380 380q-12 12 -29 12t-29 -12t-12 -29t12 -29l381 -380l-252 -1q-18 0 -30 -12t-12 -30q0 -16 12 -30q12 -12 30 -12h352q17 0 30 13q12 12 12 30z" />
    <glyph glyph-name="Omega" unicode="&#x3a9;" horiz-adv-x="755" 
d="M643 143q12 12 12 29t-12 29l-380 380h252q18 0 30 12q12 14 12 31t-13 30q-12 12 -29 12h-352q-18 0 -30 -12q-13 -13 -13 -30v-352q0 -18 12 -30q14 -12 30 -12q18 0 30 12t12 30l1 252l380 -381q12 -12 29 -12t29 12z" />
    <glyph glyph-name="Omega" unicode="&#x2126;" horiz-adv-x="755" 
d="M643 143q12 12 12 29t-12 29l-380 380h252q18 0 30 12q12 14 12 31t-13 30q-12 12 -29 12h-352q-18 0 -30 -12q-13 -13 -13 -30v-352q0 -18 12 -30q14 -12 30 -12q18 0 30 12t12 30l1 252l380 -381q12 -12 29 -12t29 12z" />
    <glyph glyph-name="radical" unicode="&#x221a;" horiz-adv-x="488" 
d="M438 629q0 19 -13.5 32.5t-32.5 13.5q-15 0 -27 -9.5t-17 -23.5l-147 -499l-77 112q-15 20 -38 20q-19 0 -32.5 -13.5t-13.5 -32.5q0 -13 8 -26l131 -191q13 -20 37 -20q15 0 28 9t18 24q3 11 12.5 42t22.5 74t28.5 94.5t31 104.5t30.5 103t26 90t18 65.5t7 30.5z" />
    <glyph glyph-name="approxequal" unicode="&#x2248;" horiz-adv-x="755" 
d="M635 272v352q0 17 -13 30q-12 12 -30 12h-352q-17 0 -29 -12q-13 -13 -13 -30t12 -31q12 -12 30 -12h252l-380 -380q-12 -12 -12 -29t12 -29t29 -12t29 12l380 381l1 -252q0 -18 12 -30t30 -12q16 0 30 12q12 12 12 30z" />
    <glyph glyph-name="Delta" unicode="&#x394;" horiz-adv-x="781" 
d="M681 386q0 17 -13 30l-248 250q-12 12 -30 12q-17 0 -29 -12l-248 -250q-13 -13 -13 -31q0 -16 13 -29q12 -12 29 -12q18 0 30 12l178 179v-502q0 -17 11.5 -29t28.5 -12t29 12t12 29v502l178 -179q12 -12 30 -12q17 0 29 12q13 13 13 30z" />
    <glyph glyph-name="Delta" unicode="&#x2206;" horiz-adv-x="781" 
d="M681 386q0 17 -13 30l-248 250q-12 12 -30 12q-17 0 -29 -12l-248 -250q-13 -13 -13 -31q0 -16 13 -29q12 -12 29 -12q18 0 30 12l178 179v-502q0 -17 11.5 -29t28.5 -12t29 12t12 29v502l178 -179q12 -12 30 -12q17 0 29 12q13 13 13 30z" />
    <glyph glyph-name="nonbreakingspace" unicode="&#xa0;" horiz-adv-x="300" 
 />
    <glyph glyph-name="lozenge" unicode="&#x25ca;" horiz-adv-x="922" 
d="M822 315q0 18 -12 30l-250 248q-12 12 -30 12t-30 -12t-12 -30t12 -30l179 -177h-538q-17 0 -29 -12t-12 -29t12 -29t29 -12h538l-179 -177q-12 -12 -12 -30t12 -30t30 -12t30 12l250 248q12 12 12 30z" />
    <glyph glyph-name="breve" unicode="&#x2d8;" horiz-adv-x="353" 
d="M313 617q0 17 -12 25.5t-26 8.5t-25 -9t-11 -26q0 -24 -17 -38t-46 -14t-46 14.5t-17 37.5q0 20 -12.5 28.5t-26.5 7.5t-24 -10t-10 -23q0 -28 11.5 -49t30.5 -35.5t43.5 -21.5t50.5 -7t50.5 7.5t44 21.5t31 34.5t11.5 47.5z" />
    <glyph glyph-name="dotaccent" unicode="&#x2d9;" horiz-adv-x="326" 
d="M226 581q0 26 -18.5 44t-44.5 18t-44.5 -18t-18.5 -44t18.5 -44.5t44.5 -18.5t44.5 18.5t18.5 44.5z" />
    <glyph glyph-name="Lslash" unicode="&#x141;" horiz-adv-x="640" 
d="M625 62q0 26 -18 44.5t-44 18.5h-302v214l110 38q20 7 29 25.5t2 38.5t-25.5 29.5t-38.5 2.5l-77 -27v162q0 28 -19.5 47.5t-47.5 19.5t-47 -19.5t-19 -47.5v-208l-74 -25q-20 -7 -29 -26t-2 -39t25.5 -28.5t38.5 -2.5l41 13v-225q0 -28 19 -47.5t47 -19.5h369
q26 0 44 18t18 44z" />
    <glyph glyph-name="lslash" unicode="&#x142;" horiz-adv-x="425" 
d="M402 445q-7 20 -25.5 29t-38.5 2l-65 -22v160q0 25 -18 43t-43 18t-42.5 -18t-17.5 -43v-202l-98 -34q-20 -7 -29 -25.5t-2 -38.5t25.5 -29.5t38.5 -2.5l65 23v-253q0 -25 17 -42.5t43 -17.5q25 0 43 17.5t18 42.5v295l98 33q20 7 29 26t2 39z" />
    <glyph glyph-name="Zcaron" unicode="&#x17d;" horiz-adv-x="658" 
d="M483 817q0 11 -6 22q-11 18 -33 18q-11 0 -20 -6l-82 -52l-83 52q-11 6 -22 6q-20 0 -31 -18q-6 -9 -6 -20q0 -10 4.5 -19t13.5 -14l100 -62q11 -8 24 -8t20 5l103 65q18 11 18 31zM613 63q0 26 -18 44t-44 18h-314l360 440q14 17 14 39q0 26 -18 44t-44 18h-425
q-26 0 -44 -18t-18 -44t18 -44.5t44 -18.5h294l-359 -440q-14 -17 -14 -38q0 -26 18.5 -44.5t44.5 -18.5h443q26 0 44 18.5t18 44.5z" />
    <glyph glyph-name="zcaron" unicode="&#x17e;" horiz-adv-x="489" 
d="M385 589q0 11 -6 22q-11 18 -33 18q-11 0 -20 -6l-82 -52l-83 52q-11 6 -22 6q-20 0 -31 -18q-6 -9 -6 -20q0 -10 4.5 -19t13.5 -14l100 -62q11 -8 24 -8t20 5l103 65q18 11 18 31z" />
    <glyph glyph-name="Scaron" unicode="&#x160;" horiz-adv-x="663" 
d="M497 817q0 11 -6 22q-11 18 -33 18q-11 0 -20 -6l-82 -52l-83 52q-11 6 -22 6q-20 0 -31 -18q-6 -9 -6 -20q0 -10 4.5 -19t13.5 -14l100 -62q11 -8 24 -8t20 5l103 65q18 11 18 31zM618 189q0 45 -16 76.5t-42.5 53t-61.5 36t-73 26.5q-11 3 -30.5 8.5t-42 12.5t-46.5 16
t-43 20.5t-31 25t-12 29.5q0 23 15.5 35.5t37.5 18.5t45.5 7t39.5 1q45 0 86 -8.5t83 -23.5q13 -5 24 -5q26 0 44.5 18.5t18.5 44.5q0 20 -11 34t-28 22q-21 10 -49 17.5t-58 13t-59.5 8t-52.5 2.5q-45 0 -93 -8t-87 -28t-64 -56t-25 -91q0 -64 29.5 -103t73.5 -63t96 -38.5
t96 -28t73.5 -31t29.5 -48.5q0 -24 -16 -38.5t-38.5 -22t-47 -10t-42.5 -2.5q-29 0 -54.5 3.5t-49.5 10t-48 16.5t-49 24q-14 8 -29 8q-25 0 -43 -19t-18 -43q0 -22 17 -40t43.5 -31.5t59 -23.5t64.5 -16t60 -9t45 -3q49 0 99 9.5t90 32.5t65 62t25 98z" />
    <glyph glyph-name="scaron" unicode="&#x161;" horiz-adv-x="472" 
d="M422 372q0 32 -34 46q-32 13 -64.5 20.5t-80.5 7.5q-37 0 -69 -9t-55 -25t-36.5 -39.5t-13.5 -51.5q0 -44 27 -76.5t93 -55.5q37 -13 60.5 -21t36 -15t17 -13t4.5 -15q0 -11 -8 -18.5t-20.5 -12t-28.5 -6.5t-31 -2q-27 0 -54 7t-54 19q-12 6 -23 6q-28 0 -39 -29
q-4 -8 -4 -18q0 -14 8 -27t23 -21q36 -18 77.5 -26.5t74.5 -8.5q48 0 84.5 11.5t60.5 31t36 44.5t12 53q0 31 -12 52.5t-32.5 37t-49 27t-61.5 22.5q-45 15 -63.5 22.5t-18.5 25.5q0 19 18 25t51 6q26 0 52 -6t50 -14q9 -3 17 -3q16 -1 29 7.5t18 24.5q3 9 3 17zM392 589
q0 11 -6 22q-11 18 -33 18q-11 0 -20 -6l-82 -52l-83 52q-11 6 -22 6q-20 0 -31 -18q-6 -9 -6 -20q0 -10 4.5 -19t13.5 -14l100 -62q11 -8 24 -8t20 5l103 65q18 11 18 31z" />
    <glyph glyph-name="brokenbar" unicode="&#xa6;" horiz-adv-x="275" 
d="M175 384v353q0 16 -11 27t-27 11t-26.5 -11t-10.5 -27v-353q0 -16 10.5 -27t26.5 -11t27 11t11 27zM175 -120v354q0 16 -11 26.5t-27 10.5t-26.5 -10.5t-10.5 -26.5v-354q0 -16 10.5 -27t26.5 -11t27 11t11 27z" />
    <glyph glyph-name="minus" unicode="&#x2212;" horiz-adv-x="461" 
d="M381 265q0 23 -16 39t-39 16h-191q-23 0 -39 -16t-16 -39t16 -38.5t39 -15.5h191q23 0 39 15.5t16 38.5z" />
    <glyph glyph-name="twosuperior" unicode="&#xb2;" horiz-adv-x="666" 
d="M499 500v166h-166v-166h166zM666 333v167h-167v-167h167zM166 500v166h-166v-166h166zM333 333v167h-167v-167h167zM499 167v166h-166v-166h166zM666 0v167h-167v-167h167zM166 167v166h-166v-166h166zM333 0v167h-167v-167h167z" />
    <glyph glyph-name="threesuperior" unicode="&#xb3;" horiz-adv-x="666" 
d="M499 500v166h-166v-166h166zM666 333v167h-167v-167h167zM166 500v166h-166v-166h166zM333 333v167h-167v-167h167zM499 167v166h-166v-166h166zM666 0v167h-167v-167h167zM166 167v166h-166v-166h166zM333 0v167h-167v-167h167z" />
    <glyph glyph-name="onesuperior" unicode="&#xb9;" horiz-adv-x="666" 
d="M499 500v166h-166v-166h166zM666 333v167h-167v-167h167zM166 500v166h-166v-166h166zM333 333v167h-167v-167h167zM499 167v166h-166v-166h166zM666 0v167h-167v-167h167zM166 167v166h-166v-166h166zM333 0v167h-167v-167h167z" />
    <glyph glyph-name="onequarter" unicode="&#xbc;" horiz-adv-x="666" 
d="M499 500v166h-166v-166h166zM666 333v167h-167v-167h167zM166 500v166h-166v-166h166zM333 333v167h-167v-167h167zM499 167v166h-166v-166h166zM666 0v167h-167v-167h167zM166 167v166h-166v-166h166zM333 0v167h-167v-167h167z" />
    <glyph glyph-name="onehalf" unicode="&#xbd;" horiz-adv-x="666" 
d="M499 500v166h-166v-166h166zM666 333v167h-167v-167h167zM166 500v166h-166v-166h166zM333 333v167h-167v-167h167zM499 167v166h-166v-166h166zM666 0v167h-167v-167h167zM166 167v166h-166v-166h166zM333 0v167h-167v-167h167z" />
    <glyph glyph-name="threequarters" unicode="&#xbe;" horiz-adv-x="666" 
d="M499 500v166h-166v-166h166zM666 333v167h-167v-167h167zM166 500v166h-166v-166h166zM333 333v167h-167v-167h167zM499 167v166h-166v-166h166zM666 0v167h-167v-167h167zM166 167v166h-166v-166h166zM333 0v167h-167v-167h167z" />
    <glyph glyph-name="Eth" unicode="&#xd0;" horiz-adv-x="742" 
d="M702 333q0 70 -23.5 131t-67.5 106t-106 70.5t-138 25.5h-177q-28 0 -47 -19t-19 -47v-211h-68q-23 0 -39.5 -16.5t-16.5 -39.5t16.5 -40t39.5 -17h68v-209q0 -28 19 -47.5t47 -19.5h177q76 0 138 25.5t106 70.5t67.5 106t23.5 131zM569 333q0 -47 -14 -85.5t-40.5 -66.5
t-65 -43t-88.5 -15h-104v153h70q23 0 40 17t17 40t-17 39.5t-40 16.5h-70v154h104q50 0 88.5 -15t65 -43t40.5 -66.5t14 -85.5z" />
    <glyph glyph-name="multiply" unicode="&#xd7;" horiz-adv-x="450" 
d="M400 83q0 20 -14 34l-93 93l93 93q14 14 14 35q0 20 -14 34t-34 14t-34 -14l-93 -93l-93 93q-14 14 -34 14t-34 -14.5t-14 -34.5t14 -34l93 -93l-93 -93q-14 -14 -14 -34t14 -34t34 -14t34 14l93 93l93 -93q14 -14 34 -14t34 14t14 34z" />
    <glyph glyph-name="Yacute" unicode="&#xdd;" horiz-adv-x="618" 
d="M467 838q0 19 -13.5 32t-32.5 13q-13 0 -26 -8l-117 -80q-19 -13 -19 -37q0 -19 13 -32t32 -13q15 0 25 7l118 80q20 13 20 38zM603 614q0 26 -17.5 43.5t-43.5 17.5q-30 0 -48 -24l-185 -253l-185 253q-18 24 -48 24q-26 0 -43.5 -17t-17.5 -43q0 -22 12 -37l216 -288
v-231q0 -27 19 -47t47 -20t47.5 19.5t19.5 47.5v231l215 288q12 15 12 36z" />
    <glyph glyph-name="Thorn" unicode="&#xde;" horiz-adv-x="698" 
d="M658 338q0 40 -13.5 78t-43 66.5t-75.5 46t-111 17.5h-182v62q0 28 -19 47.5t-47 19.5t-47.5 -19.5t-19.5 -47.5v-549q0 -28 19.5 -47.5t47.5 -19.5t47 19.5t19 47.5v72h182q65 0 111 17t75.5 46t43 66t13.5 78zM525 338q0 -15 -5 -30t-16.5 -27t-29 -19.5t-41.5 -7.5
h-200v169h200q24 0 41.5 -7.5t29 -20t16.5 -27.5t5 -30z" />
    <glyph glyph-name="eth" unicode="&#xf0;" horiz-adv-x="540" 
d="M495 232q0 42 -3.5 82t-14.5 81t-32 83.5t-55 87.5l26 18q11 8 14 20.5t-5 23.5t-20.5 13.5t-23.5 -5.5l-33 -23q-25 24 -50 44q-20 17 -42 17q-18 0 -32 -13q-16 -14 -16.5 -36t13.5 -34q21 -18 40 -37l-33 -23q-11 -8 -13.5 -20t5.5 -23t20.5 -13.5t23.5 5.5l40 27
q14 -18 25 -37.5t17 -39.5q-17 8 -34.5 11.5t-47.5 3.5q-49 0 -91 -18t-72.5 -49t-48 -73t-17.5 -89t17.5 -89t48 -73t72.5 -49t91 -18t91.5 17.5t73.5 50t48.5 77.5t17.5 100zM373 216q0 -25 -7 -47t-20.5 -38.5t-34 -26t-47.5 -9.5t-47.5 9.5t-34 26t-20 38.5t-6.5 47
t6.5 47t20 38.5t34 26t47.5 9.5t47.5 -9.5t34 -26t20.5 -38.5t7 -47z" />
    <glyph glyph-name="yacute" unicode="&#xfd;" horiz-adv-x="472" 
d="M452 388q0 23 -15 38.5t-38 15.5q-16 0 -29.5 -9t-20.5 -23l-106 -233l-107 233q-7 14 -20.5 23t-29.5 9q-23 0 -38.5 -15.5t-15.5 -38.5q0 -7 9.5 -32t24.5 -59t33 -73.5t34.5 -75t29.5 -63t18 -38.5q-23 -49 -59 -84.5t-84 -60.5q-14 -7 -23.5 -18t-9.5 -28
q0 -20 15 -36t35 -16q12 0 20 4q77 32 131 89t88 132l153 336q5 12 5 23zM392 619q0 19 -13.5 32t-32.5 13q-13 0 -26 -8l-117 -80q-19 -13 -19 -37q0 -19 13 -32t32 -13q15 0 25 7l118 80q20 13 20 38z" />
    <glyph glyph-name="thorn" unicode="&#xfe;" horiz-adv-x="593" 
d="M558 217q0 47 -16.5 89t-46 73t-69 49t-85.5 18q-42 0 -74 -20t-46 -42v231q0 25 -18 42.5t-43 17.5t-42.5 -17.5t-17.5 -42.5v-750q0 -25 17.5 -42.5t42.5 -17.5q20 0 38.5 15t18.5 45v190q16 -28 49 -47.5t75 -19.5q46 0 85.5 18t69 49t46 73t16.5 89zM437 217
q0 -25 -7 -47t-21 -38.5t-34 -26t-46 -9.5t-46 9.5t-34 26t-21 38.5t-7 47t7 47t21 38.5t34 26t46 9.5t46 -9.5t34 -26t21 -38.5t7 -47z" />
    <glyph glyph-name="apple" horiz-adv-x="876" 
d="M786 333v333h-666v-666h333v333h333z" />
  </font>
</defs>
</svg>
